<svg width="146" height="144" viewBox="0 0 146 144" fill="none" xmlns="http://www.w3.org/2000/svg">
<g clip-path="url(#clip0_1_333)">
<path d="M3.12 6.24C4.84313 6.24 6.24 4.84313 6.24 3.12C6.24 1.39687 4.84313 0 3.12 0C1.39687 0 0 1.39687 0 3.12C0 4.84313 1.39687 6.24 3.12 6.24Z" fill="#E1E6F0"/>
<path d="M20.36 6.24C22.0831 6.24 23.48 4.84313 23.48 3.12C23.48 1.39687 22.0831 0 20.36 0C18.6369 0 17.24 1.39687 17.24 3.12C17.24 4.84313 18.6369 6.24 20.36 6.24Z" fill="#E1E6F0"/>
<path d="M37.6 6.24C39.3231 6.24 40.72 4.84313 40.72 3.12C40.72 1.39687 39.3231 0 37.6 0C35.8769 0 34.48 1.39687 34.48 3.12C34.48 4.84313 35.8769 6.24 37.6 6.24Z" fill="#E1E6F0"/>
<path d="M54.84 6.24C56.5631 6.24 57.96 4.84313 57.96 3.12C57.96 1.39687 56.5631 0 54.84 0C53.1169 0 51.72 1.39687 51.72 3.12C51.72 4.84313 53.1169 6.24 54.84 6.24Z" fill="#E1E6F0"/>
<path d="M72.08 6.24C73.8031 6.24 75.2 4.84313 75.2 3.12C75.2 1.39687 73.8031 0 72.08 0C70.3569 0 68.96 1.39687 68.96 3.12C68.96 4.84313 70.3569 6.24 72.08 6.24Z" fill="#E1E6F0"/>
<path d="M89.32 6.24C91.0431 6.24 92.44 4.84313 92.44 3.12C92.44 1.39687 91.0431 0 89.32 0C87.5968 0 86.2 1.39687 86.2 3.12C86.2 4.84313 87.5968 6.24 89.32 6.24Z" fill="#E1E6F0"/>
<path d="M106.56 6.24C108.283 6.24 109.68 4.84313 109.68 3.12C109.68 1.39687 108.283 0 106.56 0C104.837 0 103.44 1.39687 103.44 3.12C103.44 4.84313 104.837 6.24 106.56 6.24Z" fill="#E1E6F0"/>
<path d="M123.8 6.24C125.523 6.24 126.92 4.84313 126.92 3.12C126.92 1.39687 125.523 0 123.8 0C122.077 0 120.68 1.39687 120.68 3.12C120.68 4.84313 122.077 6.24 123.8 6.24Z" fill="#E1E6F0"/>
<path d="M141.04 6.24C142.763 6.24 144.16 4.84313 144.16 3.12C144.16 1.39687 142.763 0 141.04 0C139.317 0 137.92 1.39687 137.92 3.12C137.92 4.84313 139.317 6.24 141.04 6.24Z" fill="#E1E6F0"/>
<path d="M3.12 21.53C4.84313 21.53 6.24 20.1331 6.24 18.41C6.24 16.6869 4.84313 15.29 3.12 15.29C1.39687 15.29 0 16.6869 0 18.41C0 20.1331 1.39687 21.53 3.12 21.53Z" fill="#E1E6F0"/>
<path d="M20.36 21.53C22.0831 21.53 23.48 20.1332 23.48 18.41C23.48 16.6869 22.0831 15.29 20.36 15.29C18.6369 15.29 17.24 16.6869 17.24 18.41C17.24 20.1332 18.6369 21.53 20.36 21.53Z" fill="#E1E6F0"/>
<path d="M37.6 21.53C39.3231 21.53 40.72 20.1332 40.72 18.41C40.72 16.6869 39.3231 15.29 37.6 15.29C35.8769 15.29 34.48 16.6869 34.48 18.41C34.48 20.1332 35.8769 21.53 37.6 21.53Z" fill="#E1E6F0"/>
<path d="M54.84 21.53C56.5631 21.53 57.96 20.1332 57.96 18.41C57.96 16.6869 56.5631 15.29 54.84 15.29C53.1169 15.29 51.72 16.6869 51.72 18.41C51.72 20.1332 53.1169 21.53 54.84 21.53Z" fill="#E1E6F0"/>
<path d="M72.08 21.53C73.8031 21.53 75.2 20.1332 75.2 18.41C75.2 16.6869 73.8031 15.29 72.08 15.29C70.3569 15.29 68.96 16.6869 68.96 18.41C68.96 20.1332 70.3569 21.53 72.08 21.53Z" fill="#E1E6F0"/>
<path d="M89.32 21.53C91.0431 21.53 92.44 20.1332 92.44 18.41C92.44 16.6869 91.0431 15.29 89.32 15.29C87.5968 15.29 86.2 16.6869 86.2 18.41C86.2 20.1332 87.5968 21.53 89.32 21.53Z" fill="#E1E6F0"/>
<path d="M106.56 21.53C108.283 21.53 109.68 20.1332 109.68 18.41C109.68 16.6869 108.283 15.29 106.56 15.29C104.837 15.29 103.44 16.6869 103.44 18.41C103.44 20.1332 104.837 21.53 106.56 21.53Z" fill="#E1E6F0"/>
<path d="M123.8 21.53C125.523 21.53 126.92 20.1332 126.92 18.41C126.92 16.6869 125.523 15.29 123.8 15.29C122.077 15.29 120.68 16.6869 120.68 18.41C120.68 20.1332 122.077 21.53 123.8 21.53Z" fill="#E1E6F0"/>
<path d="M141.04 21.53C142.763 21.53 144.16 20.1332 144.16 18.41C144.16 16.6869 142.763 15.29 141.04 15.29C139.317 15.29 137.92 16.6869 137.92 18.41C137.92 20.1332 139.317 21.53 141.04 21.53Z" fill="#E1E6F0"/>
<path d="M3.12 36.82C4.84313 36.82 6.24 35.4231 6.24 33.7C6.24 31.9769 4.84313 30.58 3.12 30.58C1.39687 30.58 0 31.9769 0 33.7C0 35.4231 1.39687 36.82 3.12 36.82Z" fill="#E1E6F0"/>
<path d="M20.36 36.82C22.0831 36.82 23.48 35.4231 23.48 33.7C23.48 31.9768 22.0831 30.58 20.36 30.58C18.6369 30.58 17.24 31.9768 17.24 33.7C17.24 35.4231 18.6369 36.82 20.36 36.82Z" fill="#E1E6F0"/>
<path d="M37.6 36.82C39.3231 36.82 40.72 35.4231 40.72 33.7C40.72 31.9768 39.3231 30.58 37.6 30.58C35.8769 30.58 34.48 31.9768 34.48 33.7C34.48 35.4231 35.8769 36.82 37.6 36.82Z" fill="#E1E6F0"/>
<path d="M54.84 36.82C56.5631 36.82 57.96 35.4231 57.96 33.7C57.96 31.9768 56.5631 30.58 54.84 30.58C53.1169 30.58 51.72 31.9768 51.72 33.7C51.72 35.4231 53.1169 36.82 54.84 36.82Z" fill="#E1E6F0"/>
<path d="M72.08 36.82C73.8031 36.82 75.2 35.4231 75.2 33.7C75.2 31.9768 73.8031 30.58 72.08 30.58C70.3569 30.58 68.96 31.9768 68.96 33.7C68.96 35.4231 70.3569 36.82 72.08 36.82Z" fill="#E1E6F0"/>
<path d="M89.32 36.82C91.0431 36.82 92.44 35.4231 92.44 33.7C92.44 31.9768 91.0431 30.58 89.32 30.58C87.5968 30.58 86.2 31.9768 86.2 33.7C86.2 35.4231 87.5968 36.82 89.32 36.82Z" fill="#E1E6F0"/>
<path d="M106.56 36.82C108.283 36.82 109.68 35.4231 109.68 33.7C109.68 31.9768 108.283 30.58 106.56 30.58C104.837 30.58 103.44 31.9768 103.44 33.7C103.44 35.4231 104.837 36.82 106.56 36.82Z" fill="#E1E6F0"/>
<path d="M123.8 36.82C125.523 36.82 126.92 35.4231 126.92 33.7C126.92 31.9768 125.523 30.58 123.8 30.58C122.077 30.58 120.68 31.9768 120.68 33.7C120.68 35.4231 122.077 36.82 123.8 36.82Z" fill="#E1E6F0"/>
<path d="M141.04 36.82C142.763 36.82 144.16 35.4231 144.16 33.7C144.16 31.9768 142.763 30.58 141.04 30.58C139.317 30.58 137.92 31.9768 137.92 33.7C137.92 35.4231 139.317 36.82 141.04 36.82Z" fill="#E1E6F0"/>
<path d="M3.12 52.12C4.84313 52.12 6.24 50.7231 6.24 49C6.24 47.2769 4.84313 45.88 3.12 45.88C1.39687 45.88 0 47.2769 0 49C0 50.7231 1.39687 52.12 3.12 52.12Z" fill="#E1E6F0"/>
<path d="M20.36 52.12C22.0831 52.12 23.48 50.7231 23.48 49C23.48 47.2769 22.0831 45.88 20.36 45.88C18.6369 45.88 17.24 47.2769 17.24 49C17.24 50.7231 18.6369 52.12 20.36 52.12Z" fill="#E1E6F0"/>
<path d="M37.6 52.12C39.3231 52.12 40.72 50.7231 40.72 49C40.72 47.2769 39.3231 45.88 37.6 45.88C35.8769 45.88 34.48 47.2769 34.48 49C34.48 50.7231 35.8769 52.12 37.6 52.12Z" fill="#E1E6F0"/>
<path d="M54.84 52.12C56.5631 52.12 57.96 50.7231 57.96 49C57.96 47.2769 56.5631 45.88 54.84 45.88C53.1169 45.88 51.72 47.2769 51.72 49C51.72 50.7231 53.1169 52.12 54.84 52.12Z" fill="#E1E6F0"/>
<path d="M72.08 52.12C73.8031 52.12 75.2 50.7231 75.2 49C75.2 47.2769 73.8031 45.88 72.08 45.88C70.3569 45.88 68.96 47.2769 68.96 49C68.96 50.7231 70.3569 52.12 72.08 52.12Z" fill="#E1E6F0"/>
<path d="M89.32 52.12C91.0431 52.12 92.44 50.7231 92.44 49C92.44 47.2769 91.0431 45.88 89.32 45.88C87.5968 45.88 86.2 47.2769 86.2 49C86.2 50.7231 87.5968 52.12 89.32 52.12Z" fill="#E1E6F0"/>
<path d="M106.56 52.12C108.283 52.12 109.68 50.7231 109.68 49C109.68 47.2769 108.283 45.88 106.56 45.88C104.837 45.88 103.44 47.2769 103.44 49C103.44 50.7231 104.837 52.12 106.56 52.12Z" fill="#E1E6F0"/>
<path d="M123.8 52.12C125.523 52.12 126.92 50.7231 126.92 49C126.92 47.2769 125.523 45.88 123.8 45.88C122.077 45.88 120.68 47.2769 120.68 49C120.68 50.7231 122.077 52.12 123.8 52.12Z" fill="#E1E6F0"/>
<path d="M141.04 52.12C142.763 52.12 144.16 50.7231 144.16 49C144.16 47.2769 142.763 45.88 141.04 45.88C139.317 45.88 137.92 47.2769 137.92 49C137.92 50.7231 139.317 52.12 141.04 52.12Z" fill="#E1E6F0"/>
<path d="M3.12 67.41C4.84313 67.41 6.24 66.0131 6.24 64.29C6.24 62.5669 4.84313 61.17 3.12 61.17C1.39687 61.17 0 62.5669 0 64.29C0 66.0131 1.39687 67.41 3.12 67.41Z" fill="#E1E6F0"/>
<path d="M20.36 67.41C22.0831 67.41 23.48 66.0132 23.48 64.29C23.48 62.5669 22.0831 61.17 20.36 61.17C18.6369 61.17 17.24 62.5669 17.24 64.29C17.24 66.0132 18.6369 67.41 20.36 67.41Z" fill="#E1E6F0"/>
<path d="M37.6 67.41C39.3231 67.41 40.72 66.0132 40.72 64.29C40.72 62.5669 39.3231 61.17 37.6 61.17C35.8769 61.17 34.48 62.5669 34.48 64.29C34.48 66.0132 35.8769 67.41 37.6 67.41Z" fill="#E1E6F0"/>
<path d="M54.84 67.41C56.5631 67.41 57.96 66.0132 57.96 64.29C57.96 62.5669 56.5631 61.17 54.84 61.17C53.1169 61.17 51.72 62.5669 51.72 64.29C51.72 66.0132 53.1169 67.41 54.84 67.41Z" fill="#E1E6F0"/>
<path d="M72.08 67.41C73.8031 67.41 75.2 66.0132 75.2 64.29C75.2 62.5669 73.8031 61.17 72.08 61.17C70.3569 61.17 68.96 62.5669 68.96 64.29C68.96 66.0132 70.3569 67.41 72.08 67.41Z" fill="#E1E6F0"/>
<path d="M89.32 67.41C91.0431 67.41 92.44 66.0132 92.44 64.29C92.44 62.5669 91.0431 61.17 89.32 61.17C87.5968 61.17 86.2 62.5669 86.2 64.29C86.2 66.0132 87.5968 67.41 89.32 67.41Z" fill="#E1E6F0"/>
<path d="M106.56 67.41C108.283 67.41 109.68 66.0132 109.68 64.29C109.68 62.5669 108.283 61.17 106.56 61.17C104.837 61.17 103.44 62.5669 103.44 64.29C103.44 66.0132 104.837 67.41 106.56 67.41Z" fill="#E1E6F0"/>
<path d="M123.8 67.41C125.523 67.41 126.92 66.0132 126.92 64.29C126.92 62.5669 125.523 61.17 123.8 61.17C122.077 61.17 120.68 62.5669 120.68 64.29C120.68 66.0132 122.077 67.41 123.8 67.41Z" fill="#E1E6F0"/>
<path d="M141.04 67.41C142.763 67.41 144.16 66.0132 144.16 64.29C144.16 62.5669 142.763 61.17 141.04 61.17C139.317 61.17 137.92 62.5669 137.92 64.29C137.92 66.0132 139.317 67.41 141.04 67.41Z" fill="#E1E6F0"/>
<path d="M3.12 82.71C4.84313 82.71 6.24 81.3131 6.24 79.59C6.24 77.8669 4.84313 76.47 3.12 76.47C1.39687 76.47 0 77.8669 0 79.59C0 81.3131 1.39687 82.71 3.12 82.71Z" fill="#E1E6F0"/>
<path d="M20.36 82.71C22.0831 82.71 23.48 81.3131 23.48 79.59C23.48 77.8668 22.0831 76.47 20.36 76.47C18.6369 76.47 17.24 77.8668 17.24 79.59C17.24 81.3131 18.6369 82.71 20.36 82.71Z" fill="#E1E6F0"/>
<path d="M37.6 82.71C39.3231 82.71 40.72 81.3131 40.72 79.59C40.72 77.8668 39.3231 76.47 37.6 76.47C35.8769 76.47 34.48 77.8668 34.48 79.59C34.48 81.3131 35.8769 82.71 37.6 82.71Z" fill="#E1E6F0"/>
<path d="M54.84 82.71C56.5631 82.71 57.96 81.3131 57.96 79.59C57.96 77.8668 56.5631 76.47 54.84 76.47C53.1169 76.47 51.72 77.8668 51.72 79.59C51.72 81.3131 53.1169 82.71 54.84 82.71Z" fill="#E1E6F0"/>
<path d="M72.08 82.71C73.8031 82.71 75.2 81.3131 75.2 79.59C75.2 77.8668 73.8031 76.47 72.08 76.47C70.3569 76.47 68.96 77.8668 68.96 79.59C68.96 81.3131 70.3569 82.71 72.08 82.71Z" fill="#E1E6F0"/>
<path d="M89.32 82.71C91.0431 82.71 92.44 81.3131 92.44 79.59C92.44 77.8668 91.0431 76.47 89.32 76.47C87.5968 76.47 86.2 77.8668 86.2 79.59C86.2 81.3131 87.5968 82.71 89.32 82.71Z" fill="#E1E6F0"/>
<path d="M106.56 82.71C108.283 82.71 109.68 81.3131 109.68 79.59C109.68 77.8668 108.283 76.47 106.56 76.47C104.837 76.47 103.44 77.8668 103.44 79.59C103.44 81.3131 104.837 82.71 106.56 82.71Z" fill="#E1E6F0"/>
<path d="M123.8 82.71C125.523 82.71 126.92 81.3131 126.92 79.59C126.92 77.8668 125.523 76.47 123.8 76.47C122.077 76.47 120.68 77.8668 120.68 79.59C120.68 81.3131 122.077 82.71 123.8 82.71Z" fill="#E1E6F0"/>
<path d="M141.04 82.71C142.763 82.71 144.16 81.3131 144.16 79.59C144.16 77.8668 142.763 76.47 141.04 76.47C139.317 76.47 137.92 77.8668 137.92 79.59C137.92 81.3131 139.317 82.71 141.04 82.71Z" fill="#E1E6F0"/>
<path d="M3.12 98C4.84313 98 6.24 96.6031 6.24 94.88C6.24 93.1569 4.84313 91.76 3.12 91.76C1.39687 91.76 0 93.1569 0 94.88C0 96.6031 1.39687 98 3.12 98Z" fill="#E1E6F0"/>
<path d="M20.36 98C22.0831 98 23.48 96.6031 23.48 94.88C23.48 93.1569 22.0831 91.76 20.36 91.76C18.6369 91.76 17.24 93.1569 17.24 94.88C17.24 96.6031 18.6369 98 20.36 98Z" fill="#E1E6F0"/>
<path d="M37.6 98C39.3231 98 40.72 96.6031 40.72 94.88C40.72 93.1569 39.3231 91.76 37.6 91.76C35.8769 91.76 34.48 93.1569 34.48 94.88C34.48 96.6031 35.8769 98 37.6 98Z" fill="#E1E6F0"/>
<path d="M54.84 98C56.5631 98 57.96 96.6031 57.96 94.88C57.96 93.1569 56.5631 91.76 54.84 91.76C53.1169 91.76 51.72 93.1569 51.72 94.88C51.72 96.6031 53.1169 98 54.84 98Z" fill="#E1E6F0"/>
<path d="M72.08 98C73.8031 98 75.2 96.6031 75.2 94.88C75.2 93.1569 73.8031 91.76 72.08 91.76C70.3569 91.76 68.96 93.1569 68.96 94.88C68.96 96.6031 70.3569 98 72.08 98Z" fill="#E1E6F0"/>
<path d="M89.32 98C91.0431 98 92.44 96.6031 92.44 94.88C92.44 93.1569 91.0431 91.76 89.32 91.76C87.5968 91.76 86.2 93.1569 86.2 94.88C86.2 96.6031 87.5968 98 89.32 98Z" fill="#E1E6F0"/>
<path d="M106.56 98C108.283 98 109.68 96.6031 109.68 94.88C109.68 93.1569 108.283 91.76 106.56 91.76C104.837 91.76 103.44 93.1569 103.44 94.88C103.44 96.6031 104.837 98 106.56 98Z" fill="#E1E6F0"/>
<path d="M123.8 98C125.523 98 126.92 96.6031 126.92 94.88C126.92 93.1569 125.523 91.76 123.8 91.76C122.077 91.76 120.68 93.1569 120.68 94.88C120.68 96.6031 122.077 98 123.8 98Z" fill="#E1E6F0"/>
<path d="M141.04 98C142.763 98 144.16 96.6031 144.16 94.88C144.16 93.1569 142.763 91.76 141.04 91.76C139.317 91.76 137.92 93.1569 137.92 94.88C137.92 96.6031 139.317 98 141.04 98Z" fill="#E1E6F0"/>
<path d="M3.12 113.29C4.84313 113.29 6.24 111.893 6.24 110.17C6.24 108.447 4.84313 107.05 3.12 107.05C1.39687 107.05 0 108.447 0 110.17C0 111.893 1.39687 113.29 3.12 113.29Z" fill="#E1E6F0"/>
<path d="M20.36 113.29C22.0831 113.29 23.48 111.893 23.48 110.17C23.48 108.447 22.0831 107.05 20.36 107.05C18.6369 107.05 17.24 108.447 17.24 110.17C17.24 111.893 18.6369 113.29 20.36 113.29Z" fill="#E1E6F0"/>
<path d="M37.6 113.29C39.3231 113.29 40.72 111.893 40.72 110.17C40.72 108.447 39.3231 107.05 37.6 107.05C35.8769 107.05 34.48 108.447 34.48 110.17C34.48 111.893 35.8769 113.29 37.6 113.29Z" fill="#E1E6F0"/>
<path d="M54.84 113.29C56.5631 113.29 57.96 111.893 57.96 110.17C57.96 108.447 56.5631 107.05 54.84 107.05C53.1169 107.05 51.72 108.447 51.72 110.17C51.72 111.893 53.1169 113.29 54.84 113.29Z" fill="#E1E6F0"/>
<path d="M72.08 113.29C73.8031 113.29 75.2 111.893 75.2 110.17C75.2 108.447 73.8031 107.05 72.08 107.05C70.3569 107.05 68.96 108.447 68.96 110.17C68.96 111.893 70.3569 113.29 72.08 113.29Z" fill="#E1E6F0"/>
<path d="M89.32 113.29C91.0431 113.29 92.44 111.893 92.44 110.17C92.44 108.447 91.0431 107.05 89.32 107.05C87.5968 107.05 86.2 108.447 86.2 110.17C86.2 111.893 87.5968 113.29 89.32 113.29Z" fill="#E1E6F0"/>
<path d="M106.56 113.29C108.283 113.29 109.68 111.893 109.68 110.17C109.68 108.447 108.283 107.05 106.56 107.05C104.837 107.05 103.44 108.447 103.44 110.17C103.44 111.893 104.837 113.29 106.56 113.29Z" fill="#E1E6F0"/>
<path d="M123.8 113.29C125.523 113.29 126.92 111.893 126.92 110.17C126.92 108.447 125.523 107.05 123.8 107.05C122.077 107.05 120.68 108.447 120.68 110.17C120.68 111.893 122.077 113.29 123.8 113.29Z" fill="#E1E6F0"/>
<path d="M141.04 113.29C142.763 113.29 144.16 111.893 144.16 110.17C144.16 108.447 142.763 107.05 141.04 107.05C139.317 107.05 137.92 108.447 137.92 110.17C137.92 111.893 139.317 113.29 141.04 113.29Z" fill="#E1E6F0"/>
<path d="M3.12 128.59C4.84313 128.59 6.24 127.193 6.24 125.47C6.24 123.747 4.84313 122.35 3.12 122.35C1.39687 122.35 0 123.747 0 125.47C0 127.193 1.39687 128.59 3.12 128.59Z" fill="#E1E6F0"/>
<path d="M20.36 128.59C22.0831 128.59 23.48 127.193 23.48 125.47C23.48 123.747 22.0831 122.35 20.36 122.35C18.6369 122.35 17.24 123.747 17.24 125.47C17.24 127.193 18.6369 128.59 20.36 128.59Z" fill="#E1E6F0"/>
<path d="M37.6 128.59C39.3231 128.59 40.72 127.193 40.72 125.47C40.72 123.747 39.3231 122.35 37.6 122.35C35.8769 122.35 34.48 123.747 34.48 125.47C34.48 127.193 35.8769 128.59 37.6 128.59Z" fill="#E1E6F0"/>
<path d="M54.84 128.59C56.5631 128.59 57.96 127.193 57.96 125.47C57.96 123.747 56.5631 122.35 54.84 122.35C53.1169 122.35 51.72 123.747 51.72 125.47C51.72 127.193 53.1169 128.59 54.84 128.59Z" fill="#E1E6F0"/>
<path d="M72.08 128.59C73.8031 128.59 75.2 127.193 75.2 125.47C75.2 123.747 73.8031 122.35 72.08 122.35C70.3569 122.35 68.96 123.747 68.96 125.47C68.96 127.193 70.3569 128.59 72.08 128.59Z" fill="#E1E6F0"/>
<path d="M89.32 128.59C91.0431 128.59 92.44 127.193 92.44 125.47C92.44 123.747 91.0431 122.35 89.32 122.35C87.5968 122.35 86.2 123.747 86.2 125.47C86.2 127.193 87.5968 128.59 89.32 128.59Z" fill="#E1E6F0"/>
<path d="M106.56 128.59C108.283 128.59 109.68 127.193 109.68 125.47C109.68 123.747 108.283 122.35 106.56 122.35C104.837 122.35 103.44 123.747 103.44 125.47C103.44 127.193 104.837 128.59 106.56 128.59Z" fill="#E1E6F0"/>
<path d="M123.8 128.59C125.523 128.59 126.92 127.193 126.92 125.47C126.92 123.747 125.523 122.35 123.8 122.35C122.077 122.35 120.68 123.747 120.68 125.47C120.68 127.193 122.077 128.59 123.8 128.59Z" fill="#E1E6F0"/>
<path d="M141.04 128.59C142.763 128.59 144.16 127.193 144.16 125.47C144.16 123.747 142.763 122.35 141.04 122.35C139.317 122.35 137.92 123.747 137.92 125.47C137.92 127.193 139.317 128.59 141.04 128.59Z" fill="#E1E6F0"/>
<path d="M3.12 143.88C4.84313 143.88 6.24 142.483 6.24 140.76C6.24 139.037 4.84313 137.64 3.12 137.64C1.39687 137.64 0 139.037 0 140.76C0 142.483 1.39687 143.88 3.12 143.88Z" fill="#E1E6F0"/>
<path d="M20.36 143.88C22.0831 143.88 23.48 142.483 23.48 140.76C23.48 139.037 22.0831 137.64 20.36 137.64C18.6369 137.64 17.24 139.037 17.24 140.76C17.24 142.483 18.6369 143.88 20.36 143.88Z" fill="#E1E6F0"/>
<path d="M37.6 143.88C39.3231 143.88 40.72 142.483 40.72 140.76C40.72 139.037 39.3231 137.64 37.6 137.64C35.8769 137.64 34.48 139.037 34.48 140.76C34.48 142.483 35.8769 143.88 37.6 143.88Z" fill="#E1E6F0"/>
<path d="M54.84 143.88C56.5631 143.88 57.96 142.483 57.96 140.76C57.96 139.037 56.5631 137.64 54.84 137.64C53.1169 137.64 51.72 139.037 51.72 140.76C51.72 142.483 53.1169 143.88 54.84 143.88Z" fill="#E1E6F0"/>
<path d="M72.08 143.88C73.8031 143.88 75.2 142.483 75.2 140.76C75.2 139.037 73.8031 137.64 72.08 137.64C70.3569 137.64 68.96 139.037 68.96 140.76C68.96 142.483 70.3569 143.88 72.08 143.88Z" fill="#E1E6F0"/>
<path d="M89.32 143.88C91.0431 143.88 92.44 142.483 92.44 140.76C92.44 139.037 91.0431 137.64 89.32 137.64C87.5968 137.64 86.2 139.037 86.2 140.76C86.2 142.483 87.5968 143.88 89.32 143.88Z" fill="#E1E6F0"/>
<path d="M106.56 143.88C108.283 143.88 109.68 142.483 109.68 140.76C109.68 139.037 108.283 137.64 106.56 137.64C104.837 137.64 103.44 139.037 103.44 140.76C103.44 142.483 104.837 143.88 106.56 143.88Z" fill="#E1E6F0"/>
<path d="M123.8 143.88C125.523 143.88 126.92 142.483 126.92 140.76C126.92 139.037 125.523 137.64 123.8 137.64C122.077 137.64 120.68 139.037 120.68 140.76C120.68 142.483 122.077 143.88 123.8 143.88Z" fill="#E1E6F0"/>
<path d="M141.04 143.88C142.763 143.88 144.16 142.483 144.16 140.76C144.16 139.037 142.763 137.64 141.04 137.64C139.317 137.64 137.92 139.037 137.92 140.76C137.92 142.483 139.317 143.88 141.04 143.88Z" fill="#E1E6F0"/>
</g>
<defs>
<clipPath id="clip0_1_333">
<rect width="145.56" height="143.88" fill="white"/>
</clipPath>
</defs>
</svg>
