<svg width="145" height="20" viewBox="0 0 145 20" fill="none" xmlns="http://www.w3.org/2000/svg">
<g clip-path="url(#clip0_1_331)">
<path d="M20.0229 10.1468C19.8863 10.3152 19.7326 10.469 19.5643 10.6058C16.5283 12.6281 13.4893 14.6489 10.4471 16.6682C10.3301 16.7809 10.1739 16.8439 10.0115 16.8439C9.84901 16.8439 9.69283 16.7809 9.57577 16.6682L0.376043 10.5553C0.266343 10.5097 0.172609 10.4327 0.106654 10.3338C0.0406992 10.235 0.00549316 10.1188 0.00549316 9.99999C0.00549316 9.88114 0.0406992 9.76496 0.106654 9.66612C0.172609 9.56728 0.266343 9.49023 0.376043 9.44469C0.53197 9.33913 0.692484 9.16474 0.834653 9.16015C0.976823 9.15556 1.15568 9.33454 1.29326 9.43551L8.88326 14.4837C9.19283 14.7222 9.57256 14.8516 9.96328 14.8516C10.354 14.8516 10.7338 14.7222 11.0434 14.4837C13.6727 12.7398 16.3005 10.9928 18.9268 9.24276C18.9765 9.19426 19.0432 9.16712 19.1126 9.16712C19.182 9.16712 19.2487 9.19426 19.2983 9.24276C19.5368 9.42633 19.8349 9.54106 19.9633 9.84395L20.0229 10.1468Z" fill="#6DAAFB"/>
<path d="M9.8464 20L5.55375 17.1592C3.82479 16.0119 2.10503 14.8646 0.366898 13.7219C0.259708 13.6722 0.168947 13.5929 0.105347 13.4933C0.0417469 13.3936 0.00796509 13.2779 0.00796509 13.1597C0.00796509 13.0415 0.0417469 12.9257 0.105347 12.8261C0.168947 12.7265 0.259708 12.6472 0.366898 12.5975C0.531998 12.5103 0.68334 12.3176 0.825509 12.3176C0.967678 12.3176 1.14654 12.492 1.28412 12.5929L8.87409 17.6411C9.18366 17.8796 9.56345 18.009 9.95416 18.009C10.3449 18.009 10.7246 17.8796 11.0342 17.6411L18.9635 12.4185C19.0132 12.37 19.0799 12.3429 19.1493 12.3429C19.2187 12.3429 19.2853 12.37 19.335 12.4185C19.5735 12.6021 19.8716 12.7214 20 13.0243V13.3364C19.8635 13.5049 19.7098 13.6587 19.5414 13.7953C17.8231 14.9487 16.1018 16.0945 14.3774 17.2327L10.1399 20.0367L9.8464 20Z" fill="#A6CAFB"/>
<path d="M19.6378 6.27799C16.5651 4.22659 13.4878 2.18896 10.4106 0.137559C10.2924 0.0460137 10.1472 -0.00366211 9.9978 -0.00366211C9.84838 -0.00366211 9.70318 0.0460137 9.58504 0.137559C6.52763 2.18437 3.45649 4.22659 0.371566 6.26422C0.2622 6.31069 0.168898 6.38834 0.103325 6.4875C0.0377514 6.58665 0.00280762 6.70292 0.00280762 6.82182C0.00280762 6.94072 0.0377514 7.05699 0.103325 7.15614C0.168898 7.25529 0.2622 7.33294 0.371566 7.37941L9.54378 13.4694C9.60387 13.5299 9.67534 13.5779 9.75405 13.6106C9.83275 13.6434 9.91714 13.6603 10.0024 13.6603C10.0876 13.6603 10.172 13.6434 10.2507 13.6106C10.3294 13.5779 10.4009 13.5299 10.461 13.4694C13.4909 11.4531 16.5223 9.43693 19.5552 7.42072C19.7235 7.28401 19.8772 7.13021 20.0138 6.96179V6.64513C19.902 6.50961 19.7759 6.38652 19.6378 6.27799Z" fill="#2A86FF"/>
</g>
<path d="M36.1134 17.5C34.8448 17.5 33.7652 17.2908 32.8745 16.8725C31.9973 16.4406 31.3158 15.8198 30.83 15.0101C30.3441 14.1869 30.0742 13.1883 30.0202 12.0142C30.0067 11.4609 30 10.8671 30 10.2328C30 9.59852 30.0067 8.99123 30.0202 8.41093C30.0742 7.25034 30.3441 6.26518 30.83 5.45546C31.3293 4.63225 32.0243 4.00472 32.915 3.57287C33.8057 3.14102 34.8718 2.9251 36.1134 2.9251C37.0175 2.9251 37.8408 3.03981 38.583 3.26923C39.3252 3.49865 39.9663 3.82928 40.5061 4.26113C41.0459 4.69298 41.4642 5.19905 41.7611 5.77935C42.058 6.35965 42.22 7.00742 42.247 7.72267C42.247 7.84413 42.1997 7.94534 42.1053 8.02631C42.0243 8.10729 41.9231 8.14777 41.8016 8.14777H39.4939C39.332 8.14777 39.2038 8.10729 39.1093 8.02631C39.0148 7.94534 38.9406 7.81039 38.8866 7.62146C38.6842 6.82524 38.3468 6.27868 37.8745 5.98178C37.4022 5.68488 36.8151 5.53644 36.1134 5.53644C35.2767 5.53644 34.6154 5.76586 34.1296 6.22469C33.6437 6.68354 33.3806 7.44602 33.3401 8.51215C33.2996 9.61876 33.2996 10.7524 33.3401 11.913C33.3806 12.9791 33.6437 13.7416 34.1296 14.2004C34.6154 14.6592 35.2767 14.8887 36.1134 14.8887C36.8151 14.8887 37.4022 14.7402 37.8745 14.4433C38.3603 14.1329 38.6977 13.5864 38.8866 12.8036C38.9406 12.6012 39.0148 12.4663 39.1093 12.3988C39.2038 12.3178 39.332 12.2773 39.4939 12.2773H41.8016C41.9231 12.2773 42.0243 12.3178 42.1053 12.3988C42.1997 12.4798 42.247 12.581 42.247 12.7024C42.22 13.4177 42.058 14.0655 41.7611 14.6457C41.4642 15.226 41.0459 15.7321 40.5061 16.164C39.9663 16.5958 39.3252 16.9265 38.583 17.1559C37.8408 17.3853 37.0175 17.5 36.1134 17.5Z" fill="#272A30"/>
<path d="M49.1166 17.5C47.9965 17.5 47.0586 17.3178 46.3028 16.9534C45.5471 16.5756 44.9668 16.0425 44.5619 15.3542C44.1706 14.666 43.9546 13.863 43.9142 12.9453C43.9007 12.6754 43.8939 12.3718 43.8939 12.0344C43.8939 11.6835 43.9007 11.3799 43.9142 11.1235C43.9546 10.1923 44.1841 9.38934 44.6024 8.71457C45.0208 8.02632 45.6078 7.5 46.3636 7.13563C47.1193 6.75776 48.037 6.56883 49.1166 6.56883C50.1827 6.56883 51.0936 6.75776 51.8494 7.13563C52.6051 7.5 53.1922 8.02632 53.6105 8.71457C54.0289 9.38934 54.2583 10.1923 54.2988 11.1235C54.3258 11.3799 54.3393 11.6835 54.3393 12.0344C54.3393 12.3718 54.3258 12.6754 54.2988 12.9453C54.2583 13.863 54.0356 14.666 53.6308 15.3542C53.2394 16.0425 52.6658 16.5756 51.9101 16.9534C51.1544 17.3178 50.2232 17.5 49.1166 17.5ZM49.1166 15.2733C49.7779 15.2733 50.2772 15.0709 50.6146 14.666C50.9519 14.2476 51.1341 13.6404 51.1611 12.8441C51.1746 12.6417 51.1814 12.3718 51.1814 12.0344C51.1814 11.697 51.1746 11.4271 51.1611 11.2247C51.1341 10.442 50.9519 9.84143 50.6146 9.42308C50.2772 9.00472 49.7779 8.79555 49.1166 8.79555C48.4553 8.79555 47.9492 9.00472 47.5984 9.42308C47.261 9.84143 47.0788 10.442 47.0518 11.2247C47.0383 11.4271 47.0316 11.697 47.0316 12.0344C47.0316 12.3718 47.0383 12.6417 47.0518 12.8441C47.0788 13.6404 47.261 14.2476 47.5984 14.666C47.9492 15.0709 48.4553 15.2733 49.1166 15.2733Z" fill="#272A30"/>
<path d="M56.9422 17.2976C56.8073 17.2976 56.6926 17.2503 56.5981 17.1559C56.5036 17.0614 56.4564 16.9399 56.4564 16.7915V7.27733C56.4564 7.14237 56.5036 7.02767 56.5981 6.9332C56.6926 6.82524 56.8073 6.77125 56.9422 6.77125H58.926C59.061 6.77125 59.1757 6.82524 59.2702 6.9332C59.3781 7.02767 59.4321 7.14237 59.4321 7.27733V8.08704C59.7695 7.66869 60.1811 7.3448 60.6669 7.11538C61.1662 6.88596 61.7398 6.77125 62.3876 6.77125H63.258C63.393 6.77125 63.5077 6.81849 63.6021 6.91296C63.6966 7.00742 63.7438 7.12888 63.7438 7.27733V9.01822C63.7438 9.16667 63.6966 9.28812 63.6021 9.38259C63.5077 9.47706 63.393 9.52429 63.258 9.52429H61.4766C60.8828 9.52429 60.4173 9.69298 60.0799 10.0304C59.7425 10.3542 59.5738 10.8198 59.5738 11.4271V16.7915C59.5738 16.9399 59.5266 17.0614 59.4321 17.1559C59.3376 17.2503 59.2162 17.2976 59.0677 17.2976H56.9422Z" fill="#272A30"/>
<path d="M69.8311 17.5C68.2791 17.5 67.0443 17.0682 66.1267 16.2045C65.2225 15.3408 64.7434 14.0857 64.6894 12.4393C64.6894 12.3313 64.6894 12.1896 64.6894 12.0142C64.6894 11.8252 64.6894 11.6768 64.6894 11.5688C64.7434 10.5297 64.9795 9.639 65.3979 8.89676C65.8163 8.14103 66.4033 7.56748 67.159 7.17611C67.9148 6.77125 68.7987 6.56883 69.8109 6.56883C70.9445 6.56883 71.8891 6.80499 72.6449 7.27733C73.4141 7.73617 73.9877 8.37044 74.3655 9.18016C74.7569 9.97638 74.9526 10.8941 74.9526 11.9332V12.3988C74.9526 12.5337 74.8986 12.6484 74.7906 12.7429C74.6962 12.8374 74.5814 12.8846 74.4465 12.8846H67.8271C67.8271 12.8981 67.8271 12.9251 67.8271 12.9656C67.8271 12.9926 67.8271 13.0196 67.8271 13.0466C67.8405 13.4784 67.9215 13.8765 68.07 14.2409C68.2319 14.5918 68.4546 14.8752 68.738 15.0911C69.0349 15.307 69.3858 15.415 69.7906 15.415C70.128 15.415 70.4047 15.3677 70.6206 15.2733C70.8365 15.1788 71.0119 15.0641 71.1469 14.9291C71.2953 14.7942 71.4033 14.6795 71.4708 14.585C71.5922 14.4501 71.6867 14.3691 71.7542 14.3421C71.8352 14.3016 71.9566 14.2814 72.1186 14.2814H74.2238C74.3588 14.2814 74.4667 14.3219 74.5477 14.4028C74.6422 14.4703 74.6827 14.5715 74.6692 14.7065C74.6557 14.9224 74.541 15.1923 74.325 15.5162C74.1226 15.8266 73.819 16.137 73.4141 16.4474C73.0092 16.7443 72.5032 16.9939 71.8959 17.1964C71.3021 17.3988 70.6138 17.5 69.8311 17.5ZM67.8271 11.0425H71.7947V11.002C71.7947 10.5162 71.7137 10.0978 71.5518 9.74696C71.4033 9.38259 71.1806 9.09919 70.8837 8.89676C70.5868 8.69433 70.2292 8.59312 69.8109 8.59312C69.3925 8.59312 69.0349 8.69433 68.738 8.89676C68.4411 9.09919 68.2117 9.38259 68.0497 9.74696C67.9013 10.0978 67.8271 10.5162 67.8271 11.002V11.0425Z" fill="#272A30"/>
<path d="M81.6522 17.5C80.667 17.5 79.7966 17.3178 79.0408 16.9534C78.2986 16.5891 77.7116 16.0628 77.2797 15.3745C76.8479 14.6727 76.6117 13.836 76.5712 12.8644C76.5577 12.6484 76.551 12.3785 76.551 12.0547C76.551 11.7173 76.5577 11.4406 76.5712 11.2247C76.6117 10.2395 76.8411 9.40283 77.2595 8.71457C77.6913 8.01282 78.2851 7.47976 79.0408 7.11538C79.7966 6.75101 80.667 6.56883 81.6522 6.56883C82.5564 6.56883 83.3256 6.69703 83.9599 6.95344C84.5942 7.19636 85.1137 7.50675 85.5186 7.88461C85.9234 8.26248 86.2203 8.66059 86.4093 9.07895C86.6117 9.48381 86.7197 9.84143 86.7332 10.1518C86.7466 10.2868 86.6994 10.4082 86.5914 10.5162C86.497 10.6107 86.3823 10.6579 86.2473 10.6579H84.0813C83.9464 10.6579 83.8384 10.6242 83.7574 10.5567C83.69 10.4757 83.6225 10.3677 83.555 10.2328C83.3661 9.76046 83.1232 9.42308 82.8263 9.22065C82.5294 9.01822 82.1583 8.917 81.7129 8.917C81.1056 8.917 80.6265 9.11268 80.2757 9.50405C79.9248 9.89541 79.7358 10.5027 79.7089 11.3259C79.6954 11.8522 79.6954 12.3313 79.7089 12.7632C79.7493 13.5999 79.9383 14.2072 80.2757 14.585C80.6265 14.9629 81.1056 15.1518 81.7129 15.1518C82.1852 15.1518 82.5631 15.0506 82.8465 14.8482C83.1299 14.6457 83.3661 14.3084 83.555 13.836C83.609 13.7011 83.6765 13.5999 83.7574 13.5324C83.8384 13.4514 83.9464 13.4109 84.0813 13.4109H86.2473C86.3823 13.4109 86.497 13.4649 86.5914 13.5729C86.6994 13.6673 86.7466 13.7821 86.7332 13.917C86.7197 14.1464 86.6522 14.4163 86.5307 14.7267C86.4228 15.0371 86.2406 15.3542 85.9842 15.6781C85.7412 16.002 85.4241 16.3057 85.0327 16.5891C84.6414 16.859 84.1623 17.0816 83.5955 17.2571C83.0422 17.419 82.3944 17.5 81.6522 17.5Z" fill="#272A30"/>
<path d="M89.2044 17.2976C89.0694 17.2976 88.9547 17.2503 88.8602 17.1559C88.7658 17.0614 88.7185 16.9399 88.7185 16.7915V7.27733C88.7185 7.14237 88.7658 7.02767 88.8602 6.9332C88.9547 6.82524 89.0694 6.77125 89.2044 6.77125H91.1882C91.3231 6.77125 91.4378 6.82524 91.5323 6.9332C91.6403 7.02767 91.6942 7.14237 91.6942 7.27733V8.08704C92.0316 7.66869 92.4432 7.3448 92.9291 7.11538C93.4284 6.88596 94.0019 6.77125 94.6497 6.77125H95.5202C95.6551 6.77125 95.7698 6.81849 95.8643 6.91296C95.9588 7.00742 96.006 7.12888 96.006 7.27733V9.01822C96.006 9.16667 95.9588 9.28812 95.8643 9.38259C95.7698 9.47706 95.6551 9.52429 95.5202 9.52429H93.7388C93.145 9.52429 92.6794 9.69298 92.342 10.0304C92.0046 10.3542 91.8359 10.8198 91.8359 11.4271V16.7915C91.8359 16.9399 91.7887 17.0614 91.6942 17.1559C91.5998 17.2503 91.4783 17.2976 91.3299 17.2976H89.2044Z" fill="#272A30"/>
<path d="M101.382 17.5C100.599 17.5 99.9042 17.3246 99.2969 16.9737C98.7031 16.6093 98.2375 16.0897 97.9001 15.415C97.5762 14.7267 97.4143 13.8968 97.4143 12.9251V7.27733C97.4143 7.12888 97.4615 7.00742 97.556 6.91296C97.6505 6.81849 97.7652 6.77125 97.9001 6.77125H100.046C100.194 6.77125 100.316 6.81849 100.41 6.91296C100.505 7.00742 100.552 7.12888 100.552 7.27733V12.8036C100.552 14.3151 101.213 15.0708 102.536 15.0708C103.17 15.0708 103.669 14.8752 104.034 14.4838C104.412 14.0789 104.601 13.5189 104.601 12.8036V7.27733C104.601 7.12888 104.648 7.00742 104.742 6.91296C104.837 6.81849 104.958 6.77125 105.107 6.77125H107.252C107.387 6.77125 107.502 6.81849 107.596 6.91296C107.691 7.00742 107.738 7.12888 107.738 7.27733V16.7915C107.738 16.9399 107.691 17.0614 107.596 17.1559C107.502 17.2503 107.387 17.2976 107.252 17.2976H105.269C105.12 17.2976 104.999 17.2503 104.904 17.1559C104.81 17.0614 104.762 16.9399 104.762 16.7915V16.002C104.412 16.4879 103.96 16.859 103.406 17.1154C102.853 17.3718 102.178 17.5 101.382 17.5Z" fill="#272A30"/>
<path d="M110.772 17.2976C110.637 17.2976 110.522 17.2503 110.428 17.1559C110.333 17.0614 110.286 16.9399 110.286 16.7915V7.27733C110.286 7.12888 110.333 7.00742 110.428 6.91296C110.522 6.81849 110.637 6.77125 110.772 6.77125H112.796C112.945 6.77125 113.066 6.81849 113.16 6.91296C113.255 7.00742 113.302 7.12888 113.302 7.27733V16.7915C113.302 16.9399 113.255 17.0614 113.16 17.1559C113.066 17.2503 112.945 17.2976 112.796 17.2976H110.772ZM110.711 5.15182C110.576 5.15182 110.461 5.10459 110.367 5.01012C110.272 4.91565 110.225 4.7942 110.225 4.64575V3.02632C110.225 2.87787 110.272 2.75641 110.367 2.66194C110.461 2.55398 110.576 2.5 110.711 2.5H112.837C112.985 2.5 113.106 2.55398 113.201 2.66194C113.309 2.75641 113.363 2.87787 113.363 3.02632V4.64575C113.363 4.7942 113.309 4.91565 113.201 5.01012C113.106 5.10459 112.985 5.15182 112.837 5.15182H110.711Z" fill="#272A30"/>
<path d="M120.902 17.2976C120.065 17.2976 119.35 17.1626 118.756 16.8927C118.162 16.6093 117.71 16.1775 117.4 15.5972C117.103 15.0169 116.954 14.2881 116.954 13.4109V9.15992H115.375C115.227 9.15992 115.105 9.11268 115.011 9.01822C114.916 8.92375 114.869 8.80229 114.869 8.65385V7.27733C114.869 7.12888 114.916 7.00742 115.011 6.91296C115.105 6.81849 115.227 6.77125 115.375 6.77125H116.954V3.43117C116.954 3.28273 117.001 3.16127 117.096 3.0668C117.204 2.97233 117.325 2.9251 117.46 2.9251H119.444C119.593 2.9251 119.714 2.97233 119.808 3.0668C119.903 3.16127 119.95 3.28273 119.95 3.43117V6.77125H122.481C122.616 6.77125 122.73 6.81849 122.825 6.91296C122.919 7.00742 122.966 7.12888 122.966 7.27733V8.65385C122.966 8.80229 122.919 8.92375 122.825 9.01822C122.73 9.11268 122.616 9.15992 122.481 9.15992H119.95V13.168C119.95 13.6808 120.038 14.0857 120.213 14.3826C120.402 14.666 120.726 14.8077 121.185 14.8077H122.663C122.798 14.8077 122.912 14.8549 123.007 14.9494C123.101 15.0439 123.149 15.1586 123.149 15.2935V16.7915C123.149 16.9399 123.101 17.0614 123.007 17.1559C122.912 17.2503 122.798 17.2976 122.663 17.2976H120.902Z" fill="#272A30"/>
<path d="M129.611 17.5C128.059 17.5 126.824 17.0682 125.907 16.2045C125.002 15.3408 124.523 14.0857 124.469 12.4393C124.469 12.3313 124.469 12.1896 124.469 12.0142C124.469 11.8252 124.469 11.6768 124.469 11.5688C124.523 10.5297 124.759 9.639 125.178 8.89676C125.596 8.14103 126.183 7.56748 126.939 7.17611C127.695 6.77125 128.579 6.56883 129.591 6.56883C130.724 6.56883 131.669 6.80499 132.425 7.27733C133.194 7.73617 133.768 8.37044 134.145 9.18016C134.537 9.97638 134.732 10.8941 134.732 11.9332V12.3988C134.732 12.5337 134.678 12.6484 134.57 12.7429C134.476 12.8374 134.361 12.8846 134.226 12.8846H127.607C127.607 12.8981 127.607 12.9251 127.607 12.9656C127.607 12.9926 127.607 13.0196 127.607 13.0466C127.62 13.4784 127.701 13.8765 127.85 14.2409C128.012 14.5918 128.234 14.8752 128.518 15.0911C128.815 15.307 129.166 15.415 129.57 15.415C129.908 15.415 130.185 15.3677 130.4 15.2733C130.616 15.1788 130.792 15.0641 130.927 14.9291C131.075 14.7942 131.183 14.6795 131.251 14.585C131.372 14.4501 131.467 14.3691 131.534 14.3421C131.615 14.3016 131.736 14.2814 131.898 14.2814H134.004C134.139 14.2814 134.247 14.3219 134.328 14.4028C134.422 14.4703 134.463 14.5715 134.449 14.7065C134.436 14.9224 134.321 15.1923 134.105 15.5162C133.902 15.8266 133.599 16.137 133.194 16.4474C132.789 16.7443 132.283 16.9939 131.676 17.1964C131.082 17.3988 130.394 17.5 129.611 17.5ZM127.607 11.0425H131.575V11.002C131.575 10.5162 131.494 10.0978 131.332 9.74696C131.183 9.38259 130.961 9.09919 130.664 8.89676C130.367 8.69433 130.009 8.59312 129.591 8.59312C129.172 8.59312 128.815 8.69433 128.518 8.89676C128.221 9.09919 127.992 9.38259 127.83 9.74696C127.681 10.0978 127.607 10.5162 127.607 11.002V11.0425Z" fill="#272A30"/>
<path d="M137.242 17.2976C137.107 17.2976 136.992 17.2503 136.898 17.1559C136.803 17.0614 136.756 16.9399 136.756 16.7915V7.27733C136.756 7.14237 136.803 7.02767 136.898 6.9332C136.992 6.82524 137.107 6.77125 137.242 6.77125H139.226C139.361 6.77125 139.475 6.82524 139.57 6.9332C139.678 7.02767 139.732 7.14237 139.732 7.27733V8.08704C140.069 7.66869 140.481 7.3448 140.966 7.11538C141.466 6.88596 142.039 6.77125 142.687 6.77125H143.558C143.693 6.77125 143.807 6.81849 143.902 6.91296C143.996 7.00742 144.043 7.12888 144.043 7.27733V9.01822C144.043 9.16667 143.996 9.28812 143.902 9.38259C143.807 9.47706 143.693 9.52429 143.558 9.52429H141.776C141.182 9.52429 140.717 9.69298 140.379 10.0304C140.042 10.3542 139.873 10.8198 139.873 11.4271V16.7915C139.873 16.9399 139.826 17.0614 139.732 17.1559C139.637 17.2503 139.516 17.2976 139.367 17.2976H137.242Z" fill="#272A30"/>
<defs>
<clipPath id="clip0_1_331">
<rect width="20" height="20" fill="white"/>
</clipPath>
</defs>
</svg>
