<svg width="468" height="487" viewBox="0 0 468 487" fill="none" xmlns="http://www.w3.org/2000/svg">
<g clip-path="url(#clip0_1_515)">
<path d="M376.546 203.366C361.265 136.248 291.347 95.9692 225.815 117.05C224.492 117.467 223.169 117.901 221.827 118.372C136.084 147.821 164.218 234.825 121.346 261.593C78.4743 288.361 47.6574 327.172 66.4195 378.045C85.1816 428.919 199.041 477.148 288.809 422.218C359.379 379.078 395.997 288.795 376.546 203.366Z" stroke="#BFD9FF" stroke-width="1.11" stroke-miterlimit="10"/>
<path d="M356.481 123.819C351.63 93.5273 372.277 65.0419 402.596 60.1953C432.916 55.3488 461.428 75.9763 466.279 106.268C471.13 136.56 450.484 165.045 420.164 169.892C389.844 174.739 361.332 154.111 356.481 123.819Z" stroke="#BFD9FF" stroke-width="1.11" stroke-miterlimit="10"/>
<path d="M144.006 366.002H338.478C339.477 365.988 340.457 365.728 341.33 365.244C342.203 364.759 342.942 364.066 343.481 363.226C344.02 362.386 344.342 361.426 344.418 360.431C344.494 359.436 344.322 358.438 343.917 357.526L205.929 48.3197C205.47 47.2553 204.712 46.3468 203.747 45.7039C202.782 45.061 201.651 44.7115 200.491 44.6975H6.03655C5.038 44.7107 4.05833 44.9711 3.18531 45.4556C2.31228 45.94 1.57314 46.6333 1.0342 47.4732C0.49527 48.3132 0.17337 49.2736 0.0972862 50.2684C0.0212021 51.2632 0.193332 52.2613 0.598273 53.1734L138.513 362.416C138.983 363.48 139.752 364.386 140.727 365.022C141.702 365.659 142.841 365.999 144.006 366.002V366.002Z" fill="url(#paint0_linear_1_515)"/>
<path d="M85.0728 147.893L22.3151 7.26244C21.9687 6.47781 21.8235 5.61932 21.8926 4.76455C21.9616 3.90978 22.2427 3.08567 22.7105 2.36667C23.1783 1.64766 23.818 1.05643 24.5719 0.646392C25.3257 0.236349 26.1699 0.020422 27.0282 0.0181122H203.029C206.229 0.0188931 209.36 0.946543 212.044 2.68872C214.727 4.4309 216.847 6.91289 218.147 9.83417L281.848 152.584C282.194 153.368 282.339 154.227 282.27 155.082C282.201 155.936 281.92 156.76 281.452 157.479C280.985 158.198 280.345 158.79 279.591 159.2C278.837 159.61 277.993 159.826 277.135 159.828H103.4C99.5192 159.812 95.7257 158.678 92.4748 156.56C89.2238 154.443 86.6536 151.434 85.0728 147.893V147.893Z" fill="white"/>
<path d="M107.859 244.261L45.1015 103.63C44.7502 102.846 44.6012 101.986 44.668 101.129C44.7349 100.273 45.0155 99.4465 45.4842 98.7261C45.9529 98.0057 46.5948 97.4141 47.3513 97.0052C48.1078 96.5964 48.9546 96.3834 49.8146 96.3858H225.888C229.087 96.3827 232.217 97.3068 234.901 99.0459C237.584 100.785 239.705 103.264 241.006 106.184L304.725 248.951C305.071 249.736 305.216 250.594 305.147 251.449C305.078 252.304 304.797 253.128 304.329 253.847C303.862 254.566 303.222 255.157 302.468 255.567C301.714 255.977 300.87 256.193 300.012 256.196H126.259C122.365 256.196 118.555 255.069 115.29 252.951C112.024 250.832 109.443 247.814 107.859 244.261V244.261Z" stroke="white" stroke-width="1.11" stroke-miterlimit="10"/>
<path opacity="0.39" d="M187.657 194.583H179.608L201.216 236.745H331.844L326.569 226.44" stroke="#A1C2FF" stroke-width="0.55" stroke-miterlimit="10"/>
<path d="M172.414 77.8047C155.861 63.4699 151.183 41.7764 161.963 29.3511C172.744 16.9257 194.902 18.4736 211.454 32.8085C228.006 47.1433 232.685 68.8367 221.904 81.2621C211.124 93.6875 188.966 92.1396 172.414 77.8047Z" fill="#E6F4FF"/>
<path d="M174.735 75.1498C160.135 62.5053 156.007 43.3708 165.516 32.4117C175.024 21.4525 194.568 22.8188 209.169 35.4634C223.769 48.1079 227.897 67.2424 218.389 78.2015C208.88 89.1607 189.336 87.7944 174.735 75.1498Z" fill="#94C3FF"/>
<path d="M191.391 61.3776C191.391 61.3776 207.325 64.0036 214.123 66.684C215.75 67.5055 217.174 68.6771 218.293 70.1145C219.412 71.552 220.198 73.2195 220.595 74.9969V74.9969C216.879 81.4625 209.827 85.5736 200.654 85.5736C188.763 85.5736 176.526 78.7096 168.695 68.7487C172.955 62.5367 191.391 61.3776 191.391 61.3776Z" fill="#4361C4"/>
<path d="M196.993 54.6041L199.748 66.195C199.853 66.5036 199.887 66.8317 199.849 67.1554C199.811 67.479 199.701 67.7901 199.528 68.0659C199.354 68.3418 199.121 68.5755 198.845 68.75C198.57 68.9245 198.259 69.0354 197.935 69.0747C194.716 69.5877 191.421 68.8699 188.708 67.0644C188.178 66.7408 187.728 66.2999 187.395 65.7755C187.062 65.2511 186.854 64.6573 186.787 64.0399C186.388 58.6066 185.3 47.5409 185.3 47.5409L196.993 54.6041Z" fill="#FF8D68"/>
<path d="M199.404 42.3069C199.404 42.3069 206.89 57.4475 205.422 61.5044C203.736 64.2934 188.69 58.0452 186.225 53.9884C183.759 49.9316 178.104 42.5785 182.599 37.9784C187.095 33.3783 193.82 34.9539 199.404 42.3069Z" fill="#FF8D68"/>
<path d="M199.403 42.3069C199.75 40.73 199.631 39.0867 199.061 37.576C198.492 36.0652 197.496 34.7518 196.195 33.7948C191.663 30.6435 185.844 31.2774 183.759 34.4287C182.925 35.5884 182.162 36.7981 181.475 38.0508C180.78 38.2353 180.142 38.5928 179.622 39.0901C179.102 39.5873 178.717 40.208 178.502 40.8942C177.777 43.2486 182.49 49.2433 184.394 50.982C186.297 52.7206 185.917 52.793 185.917 52.793L186.569 51.9599C186.378 49.5076 185.94 47.0807 185.264 44.7156C185.028 43.2849 186.642 41.2383 189.506 40.7675C192.37 40.2966 193.494 42.9226 199.403 42.3069Z" fill="#7E3636"/>
<path d="M184.901 49.189C184.636 48.6737 184.208 48.2598 183.684 48.0111C183.16 47.7625 182.569 47.6927 182.001 47.8126C180.188 48.4284 183.814 54.2057 185.79 53.8073C187.766 53.4088 184.901 49.189 184.901 49.189Z" fill="#FF8D68"/>
<path d="M186.714 61.8484C188.925 64.2832 191.632 66.2162 194.654 67.5171C195.343 67.7345 196.467 69.0928 196.467 69.0928L197.174 67.2817C197.91 66.8593 198.493 66.2142 198.838 65.4395C199.183 64.6648 199.273 63.8005 199.095 62.9713L199.639 63.3879L201.089 67.01C201.592 68.5139 201.926 70.0689 202.086 71.6464L198.461 69.6361C197.175 70.0526 195.797 70.0903 194.491 69.7448C194.491 69.7448 193.748 72.2622 193.059 72.4795C192.37 72.6968 186.914 67.5353 186.08 65.7604C185.514 64.6413 185.269 63.3877 185.373 62.1382L186.714 61.8484Z" fill="white"/>
<path opacity="0.39" d="M71.2052 68.5132H147.486C147.997 68.542 148.507 68.4341 148.963 68.2006C149.419 67.9671 149.804 67.6165 150.079 67.1848C150.354 66.7532 150.509 66.2561 150.528 65.7447C150.547 65.2333 150.429 64.7261 150.187 64.2753L139.311 34.646C138.845 33.4665 138.055 32.4426 137.032 31.6927C136.009 30.9428 134.794 30.4974 133.528 30.4081H57.247C56.7351 30.3768 56.2242 30.4834 55.7677 30.7168C55.3112 30.9501 54.9257 31.3017 54.6515 31.7347C54.3774 32.1677 54.2247 32.6663 54.2093 33.1784C54.1939 33.6905 54.3164 34.1973 54.564 34.646L65.4406 64.2753C65.9047 65.4522 66.6921 66.4743 67.7118 67.224C68.7316 67.9737 69.9425 68.4206 71.2052 68.5132V68.5132Z" fill="#A1C2FF"/>
<path d="M66.8002 43.8101H132.476L131.316 40.6407H65.64L66.8002 43.8101Z" fill="#94C3FF"/>
<path d="M95.623 51.2174H135.177L134.017 48.048H94.4629L95.623 51.2174Z" fill="#94C3FF"/>
<path d="M127.383 57.9184H137.625L136.465 54.749H126.222L127.383 57.9184Z" fill="#94C3FF"/>
<path d="M143.951 82.1507C144.529 83.4799 145.459 84.6261 146.641 85.4656C147.823 86.3051 149.212 86.8059 150.658 86.9138C153.287 86.9138 154.556 84.7767 153.504 82.1507C152.93 80.8181 152.001 79.6681 150.818 78.8253C149.636 77.9825 148.245 77.479 146.797 77.3694C144.169 77.3694 142.882 79.5065 143.951 82.1507Z" fill="#94C3FF"/>
<path d="M127.365 82.1507C127.944 83.4787 128.874 84.6239 130.056 85.4631C131.238 86.3024 132.626 86.8039 134.072 86.9138C136.718 86.9138 137.987 84.7767 136.918 82.1507C136.345 80.8169 135.416 79.6658 134.234 78.8228C133.051 77.9797 131.659 77.477 130.211 77.3694C127.582 77.3694 126.313 79.5065 127.365 82.1507Z" fill="#94C3FF"/>
<path d="M110.796 82.1507C111.373 83.4799 112.303 84.6261 113.485 85.4656C114.668 86.3051 116.057 86.8059 117.503 86.9138C120.132 86.9138 121.4 84.7767 120.331 82.1507C119.761 80.8183 118.836 79.6679 117.656 78.8248C116.477 77.9817 115.088 77.4783 113.642 77.3694C110.995 77.3694 109.726 79.5065 110.796 82.1507Z" fill="#94C3FF"/>
<path d="M94.2635 82.1507C94.8425 83.4787 95.7729 84.6239 96.9547 85.4631C98.1365 86.3024 99.525 86.8039 100.971 86.9138C103.599 86.9138 104.886 84.7767 103.817 82.1507C103.244 80.8169 102.315 79.6658 101.132 78.8228C99.9498 77.9797 98.5583 77.477 97.1095 77.3694C94.4266 77.3694 93.1577 79.5065 94.2635 82.1507Z" fill="#FF8D02"/>
<path opacity="0.39" d="M77.6405 82.1507C78.2132 83.4796 79.1395 84.6263 80.3189 85.4661C81.4982 86.3059 82.8854 86.8066 84.3296 86.9138C86.9763 86.9138 88.2452 84.7767 87.1757 82.1507C86.6056 80.8183 85.6803 79.6679 84.5008 78.8248C83.3213 77.9817 81.9328 77.4783 80.4866 77.3694C77.84 77.3694 76.571 79.5065 77.6405 82.1507Z" fill="#A1C2FF"/>
<path opacity="0.39" d="M117.014 96.6393L138.078 118.481L159.867 127.12L135.159 145.249L110.325 124.077L117.014 96.6393Z" fill="#A1C2FF"/>
<path opacity="0.7" d="M121.999 109.335L138.078 118.481L151.655 127.066L133.22 140.286L115.817 124.385L121.999 109.335Z" fill="#A1C2FF"/>
<path d="M117.014 96.6393L138.078 118.481L159.867 127.12L135.232 145.43L110.325 124.077L117.014 96.6393Z" stroke="#4361C4" stroke-width="0.28" stroke-miterlimit="10"/>
<path d="M126.893 126.106C127.076 126.532 127.372 126.901 127.749 127.172C128.126 127.443 128.569 127.607 129.032 127.645C129.884 127.645 130.283 126.957 129.939 126.106C129.756 125.68 129.46 125.313 129.083 125.045C128.706 124.776 128.262 124.617 127.8 124.584C126.893 124.584 126.567 125.273 126.893 126.106Z" fill="#4361C4"/>
<path d="M147.595 111.037L128.978 125.762L162.224 127.464" stroke="#4361C4" stroke-width="0.28" stroke-miterlimit="10"/>
<path d="M136.61 150.501L128.289 125.762L106.373 123.57" stroke="#4361C4" stroke-width="0.28" stroke-miterlimit="10"/>
<path d="M115.781 93.5786L128.289 125.762" stroke="#4361C4" stroke-width="0.28" stroke-miterlimit="10"/>
<path d="M145.909 110.748C146.223 111.465 146.726 112.083 147.365 112.536C148.003 112.989 148.753 113.26 149.535 113.319C150.948 113.319 151.619 112.16 151.057 110.748C150.743 110.033 150.239 109.417 149.6 108.967C148.961 108.517 148.211 108.25 147.432 108.194C146.018 108.194 145.347 109.335 145.909 110.748Z" fill="#94C3FF"/>
<path d="M160.991 127.482C161.3 128.203 161.802 128.824 162.441 129.278C163.081 129.732 163.834 130 164.617 130.054C166.031 130.054 166.72 128.895 166.139 127.482C165.83 126.764 165.327 126.145 164.687 125.694C164.047 125.243 163.295 124.978 162.514 124.928C161.1 124.928 160.411 126.069 160.991 127.482Z" fill="#FF8D02"/>
<path d="M134.144 150.917C134.454 151.636 134.956 152.255 135.596 152.706C136.236 153.156 136.988 153.421 137.77 153.471C139.184 153.471 139.873 152.33 139.292 150.917C138.984 150.197 138.482 149.575 137.842 149.122C137.202 148.668 136.45 148.399 135.667 148.346C134.307 148.346 133.618 149.505 134.144 150.917Z" fill="#94C3FF"/>
<path d="M103.327 123.606C103.642 124.321 104.146 124.937 104.785 125.387C105.424 125.837 106.173 126.104 106.953 126.16C108.367 126.16 109.038 125.019 108.476 123.606C108.164 122.889 107.661 122.271 107.022 121.821C106.382 121.37 105.631 121.105 104.85 121.053C103.509 121.053 102.838 122.176 103.327 123.606Z" fill="#94C3FF"/>
<path d="M112.953 92.7274C113.262 93.4481 113.764 94.0696 114.403 94.5234C115.043 94.9771 115.796 95.2456 116.579 95.2991C117.993 95.2991 118.681 94.1401 118.119 92.7274C117.805 92.0125 117.301 91.3969 116.662 90.947C116.023 90.497 115.274 90.2296 114.494 90.1738C113.062 90.1738 112.391 91.3872 112.953 92.7274Z" fill="#FF8D02"/>
<path d="M171.106 114.08H234.952L230.075 102.018H166.23L171.106 114.08Z" fill="#4361C4"/>
<path opacity="0.39" d="M209.555 141.228H245.937L243.834 136.067H207.452L209.555 141.228Z" fill="#A1C2FF"/>
<path opacity="0.39" d="M215.011 130.887H241.75L236.873 118.825H210.117L215.011 130.887Z" fill="#A1C2FF"/>
<path d="M73.1992 259.655L41.9472 189.638C41.7665 189.247 41.688 188.815 41.7192 188.385C41.7504 187.955 41.8901 187.54 42.1255 187.178C42.3608 186.816 42.684 186.52 43.0649 186.317C43.4458 186.114 43.872 186.01 44.3038 186.016H131.969C133.56 186.015 135.117 186.474 136.453 187.339C137.788 188.204 138.843 189.436 139.492 190.888L171.215 261.973C171.391 262.365 171.465 262.795 171.432 263.223C171.398 263.652 171.258 264.065 171.024 264.425C170.789 264.785 170.468 265.081 170.09 265.285C169.712 265.49 169.288 265.596 168.858 265.595H82.3536C80.4163 265.595 78.5207 265.033 76.896 263.979C75.2714 262.925 73.9874 261.423 73.1992 259.655V259.655Z" fill="white"/>
<path opacity="0.39" d="M96.5909 243.712C81.9054 231.707 76.5196 214.016 84.5614 204.196C92.6032 194.376 111.027 196.147 125.713 208.151C140.398 220.155 145.784 237.847 137.742 247.667C129.7 257.487 111.276 255.716 96.5909 243.712Z" fill="#A1C2FF"/>
<path d="M103.327 227.381C103.327 227.381 89.1153 234.445 87.6107 240.91C86.1061 247.376 92.4144 264.454 92.4144 264.454H148.846C148.846 264.454 139.583 244.532 132.386 239.751C125.189 234.97 111.285 231.456 111.285 231.456L103.327 227.381Z" fill="#4385FF"/>
<path d="M109.092 222.799L113.515 232.362C114.077 233.557 113.751 234.662 112.717 234.97C110.149 235.676 107.406 235.358 105.068 234.082C104.082 233.598 103.327 232.746 102.965 231.71C101.605 227.164 98.5597 217.855 98.5597 217.855L109.092 222.799Z" fill="#94C3FF"/>
<path d="M108.621 212.168C108.621 212.168 117.467 224.321 117.122 227.888C116.343 230.388 103.309 226.458 100.572 223.234C97.8346 220.01 91.9614 214.305 94.5173 210.031C97.0733 205.757 102.729 206.445 108.621 212.168Z" fill="#94C3FF"/>
<path d="M108.24 210.393C108.357 210.545 108.466 210.702 108.566 210.864C109.074 211.734 109.835 213.472 107.714 213.581L104.868 213.726C104.868 213.726 100.318 211.154 98.5416 213.889C97.2001 216.624 101.533 218.308 101.17 219.666C100.808 221.024 101.007 220.735 101.605 221.477C102.326 222.75 103.43 223.763 104.759 224.375C106.808 225.28 108.385 225.136 110.379 226.186C112.373 227.236 116.107 226.023 116.506 225.118C117.412 224.357 117.938 226.023 118.518 227.092C119.098 228.16 120.911 228.468 119.171 229.844C117.431 231.221 116.162 231.819 113.134 229.989C111.29 228.725 109.183 227.895 106.971 227.562C104.353 227.035 102.033 225.533 100.481 223.361C99.3211 221.55 98.9585 219.032 97.9796 218.109C97.0007 217.185 96.4388 218.109 96.8738 219.177C97.3089 220.246 93.1577 218.272 92.1607 215.066C91.1637 211.86 92.922 212.023 93.0851 210.194C93.2483 208.365 91.1818 206.246 93.4115 204.562C95.6412 202.877 97.7077 205.014 98.4872 203.946C99.2667 202.877 102.729 202.733 105.484 205.015C107.126 206.415 108.165 208.393 108.385 210.538" fill="#4361C4"/>
<path d="M98.4873 218.398C98.4873 218.398 97.2908 216.859 95.9494 217.475C94.6079 218.091 98.6503 222.745 100.101 222.22C101.551 221.695 98.4873 218.398 98.4873 218.398Z" fill="#94C3FF"/>
<path d="M117.449 225.606C117.449 225.606 116.144 220.898 112.862 220.282C109.581 219.666 108.077 221.658 108.294 223.325C108.343 223.827 108.254 224.334 108.037 224.79C107.819 225.246 107.482 225.635 107.062 225.914C107.062 225.914 115.364 229.881 117.449 225.606Z" fill="#4361C4"/>
<path d="M112.5 354.175L81.2479 284.159C81.0722 283.767 80.9977 283.337 81.0311 282.909C81.0646 282.48 81.2048 282.067 81.4392 281.707C81.6735 281.347 81.9945 281.051 82.3728 280.846C82.751 280.642 83.1744 280.536 83.6044 280.537H171.269C172.861 280.533 174.419 280.991 175.755 281.856C177.091 282.721 178.146 283.955 178.792 285.408L210.516 356.493C210.691 356.884 210.765 357.312 210.733 357.739C210.7 358.166 210.562 358.578 210.329 358.938C210.097 359.298 209.779 359.594 209.403 359.799C209.027 360.005 208.606 360.114 208.177 360.116H121.672C119.733 360.116 117.834 359.556 116.206 358.501C114.578 357.447 113.291 355.945 112.5 354.175V354.175Z" fill="white"/>
<path opacity="0.39" d="M130.166 336.721C115.08 324.388 109.546 306.214 117.807 296.127C126.068 286.04 144.994 287.86 160.081 300.193C175.167 312.525 180.7 330.699 172.44 340.786C164.179 350.873 145.252 349.053 130.166 336.721Z" fill="#A1C2FF"/>
<path d="M137.117 310.275C137.117 310.275 132.803 308.228 132.223 310.709C132.082 311.473 132.129 312.259 132.36 313C132.59 313.741 132.997 314.416 133.546 314.965C133.546 314.965 129.667 313.897 128.633 317.211C127.6 320.525 130.718 322.119 129.413 323.296C128.108 324.473 125.443 327.009 129.195 331.211C132.948 335.412 138.422 340.266 144.785 337.115C151.148 333.964 149.118 318.914 149.118 318.914L147.559 314.494L137.117 310.275Z" fill="#4361C4"/>
<path d="M141.25 297.597C141.25 297.597 150.84 298.412 153.939 305.113C157.039 311.814 150.948 312.357 150.948 312.357L141.25 297.597Z" fill="#4361C4"/>
<path d="M203.537 343.128L202.92 344.232C198.602 349.373 193.938 354.213 188.962 358.721H175.276C169.199 353.038 163.541 346.925 158.344 340.429C158.344 339.777 149.77 330.523 151.655 326.737C153.541 322.952 155.97 323.568 155.97 323.568C158.263 324.132 160.323 325.399 161.861 327.19C164.979 330.432 180.351 354.248 180.351 354.248C181.804 351.818 183.705 349.685 185.953 347.963C189.578 345.265 200.237 339.542 200.237 339.542C200.237 339.542 199.585 334.942 199.639 334.108C199.693 333.275 202.358 329.219 203.156 330.088C203.953 330.957 202.086 334.724 202.086 334.724C202.086 334.724 204.153 342.077 203.537 343.128Z" fill="#94C3FF"/>
<path d="M169.294 352.074C169.294 352.074 168.895 354.99 168.097 358.739H140.906C140.289 352.618 139.093 340.302 138.259 337.368C137.244 333.438 138.15 325.071 137.824 322.771C137.498 320.471 144.06 321.322 144.06 321.322L152.634 321.467L154.012 322.065C155.937 322.897 157.58 324.269 158.743 326.013C159.795 327.643 161.354 329.997 163.456 333.094C166.846 335.648 174.333 340.103 173.735 345.772C173.137 351.441 169.294 352.074 169.294 352.074Z" fill="#4385FF"/>
<path d="M149.788 316.269C154.562 322.52 157.87 329.761 159.468 337.459C157.003 336.698 149.462 329.798 144.966 325.578C144.237 325.094 143.679 324.392 143.373 323.573C143.067 322.753 143.028 321.857 143.262 321.014C143.057 318.859 142.494 316.754 141.595 314.784C140.942 310.854 149.788 316.269 149.788 316.269Z" fill="#94C3FF"/>
<path d="M125.951 354.664C125.951 354.664 124.772 356.294 122.814 358.739H110.578C112.917 355.642 114.784 353.143 115.364 352.256C117.34 349.249 131.244 318.968 139.709 322.735C141.287 323.441 146.96 328.168 144.622 333.493C142.284 338.817 125.951 354.664 125.951 354.664Z" fill="#94C3FF"/>
<path d="M150.133 303.881C152.369 306.676 154.37 309.65 156.115 312.774C157.674 315.798 156.604 318.569 153.704 318.877C149.516 319.33 143.135 318.298 141.015 315.907C137.897 312.285 131.226 306.055 133.945 301.165C136.664 296.275 142.555 296.927 149.009 302.722C149.421 303.071 149.797 303.459 150.133 303.881V303.881Z" fill="#94C3FF"/>
<path d="M147.305 300.766C147.305 300.766 151.51 307.63 139.582 311.995L138.096 312.665C138.096 312.665 132.893 308.536 132.821 304.171C132.651 302.686 133.001 301.188 133.81 299.93C134.62 298.673 135.839 297.733 137.262 297.271C139.582 296.311 145.71 299.136 147.305 300.766Z" fill="#4361C4"/>
<path d="M139.909 312.991C139.909 312.991 136.9 310.908 136.936 312.828C136.972 314.748 141.196 316.795 141.649 315.998C142.102 315.201 139.909 312.991 139.909 312.991Z" fill="#94C3FF"/>
<path d="M207.76 296.166H304.326C307.299 296.166 308.731 293.758 307.535 290.733L300.664 273.745C300.027 272.235 298.987 270.93 297.657 269.972C296.326 269.013 294.758 268.439 293.123 268.312H196.576C193.603 268.312 192.171 270.702 193.367 273.745L200.237 290.733C200.873 292.24 201.911 293.544 203.237 294.502C204.564 295.46 206.129 296.036 207.76 296.166V296.166Z" fill="#4385FF"/>
<path d="M208.522 283.652H291.673L290.041 279.631H206.89L208.522 283.652Z" fill="white"/>
<path d="M285.854 16.6438H289.135C289.697 16.6438 289.987 16.173 289.751 15.5934L288.428 12.3335C288.297 12.0455 288.092 11.7969 287.834 11.6126C287.577 11.4283 287.275 11.3147 286.96 11.2831H283.697C283.117 11.2831 282.845 11.7539 283.081 12.3335L284.386 15.5934C284.517 15.8814 284.722 16.13 284.98 16.3143C285.237 16.4986 285.539 16.6122 285.854 16.6438V16.6438Z" fill="#F9FBFC"/>
<path d="M252.372 16.6438H255.599C256.179 16.6438 256.451 16.173 256.215 15.5934L254.91 12.3335C254.777 12.043 254.57 11.7928 254.309 11.6083C254.047 11.4238 253.742 11.3116 253.424 11.2831H250.161C249.581 11.2831 249.309 11.7539 249.544 12.3335L250.868 15.5934C251.002 15.8864 251.213 16.1383 251.477 16.3229C251.742 16.5076 252.051 16.6184 252.372 16.6438V16.6438Z" fill="#BFD9FF"/>
<path d="M292.09 32.038H295.353C295.933 32.038 296.205 31.5671 295.969 30.9876L294.664 27.7277C294.533 27.4396 294.328 27.1911 294.07 27.0068C293.813 26.8225 293.511 26.7088 293.196 26.6772H289.915C289.335 26.6772 289.063 27.1481 289.298 27.7277L290.622 30.9876C290.753 31.2756 290.958 31.5242 291.216 31.7085C291.473 31.8928 291.775 32.0064 292.09 32.038Z" fill="#BFD9FF"/>
<path d="M275.34 32.038H278.603C279.183 32.038 279.455 31.5671 279.237 30.9876L277.914 27.7277C277.783 27.4396 277.578 27.1911 277.32 27.0068C277.063 26.8225 276.761 26.7088 276.446 26.6772H273.183C272.603 26.6772 272.313 27.1481 272.548 27.7277L273.872 30.9876C274.003 31.2756 274.208 31.5242 274.466 31.7085C274.723 31.8928 275.025 32.0064 275.34 32.038Z" fill="#F9FBFC"/>
<path d="M258.59 32.038H261.853C262.433 32.038 262.723 31.5671 262.487 30.9876L261.164 27.7277C261.033 27.4396 260.828 27.1911 260.57 27.0068C260.313 26.8225 260.011 26.7088 259.696 26.6772H256.433C255.853 26.6772 255.563 27.1481 255.798 27.7277L257.122 30.9876C257.253 31.2756 257.458 31.5242 257.716 31.7085C257.973 31.8928 258.275 32.0064 258.59 32.038Z" fill="#F9FBFC"/>
<path d="M245.194 32.038H248.457C249.037 32.038 249.327 31.5671 249.091 30.9876L247.768 27.7277C247.636 27.4396 247.432 27.1911 247.174 27.0068C246.916 26.8225 246.615 26.7088 246.3 26.6772H243.037C242.457 26.6772 242.166 27.1481 242.402 27.7277L243.725 30.9876C243.857 31.2756 244.062 31.5242 244.319 31.7085C244.577 31.8928 244.879 32.0064 245.194 32.038Z" fill="#F9FBFC"/>
<path d="M298.308 47.4322H301.571C302.151 47.4322 302.441 46.9613 302.205 46.3818L300.882 43.1219C300.75 42.8338 300.545 42.5853 300.288 42.401C300.03 42.2167 299.729 42.103 299.413 42.0714H296.15C295.57 42.0714 295.28 42.5423 295.516 43.1219L296.839 46.3818C296.971 46.6698 297.176 46.9184 297.433 47.1027C297.691 47.287 297.992 47.4006 298.308 47.4322V47.4322Z" fill="#F9FBFC"/>
<path d="M311.704 47.4322H314.967C315.547 47.4322 315.837 46.9613 315.601 46.3818L314.278 43.1219C314.147 42.8338 313.942 42.5853 313.684 42.401C313.426 42.2167 313.125 42.103 312.81 42.0714H309.547C308.967 42.0714 308.695 42.5423 308.912 43.1219L310.236 46.3818C310.367 46.6698 310.572 46.9184 310.829 47.1027C311.087 47.287 311.389 47.4006 311.704 47.4322V47.4322Z" fill="#F9FBFC"/>
<path d="M281.558 47.4322H284.839C285.401 47.4322 285.691 46.9613 285.455 46.3818L284.132 43.1219C284 42.8338 283.796 42.5853 283.538 42.401C283.28 42.2167 282.979 42.103 282.664 42.0714H279.401C278.82 42.0714 278.549 42.5423 278.784 43.1219L280.089 46.3818C280.221 46.6698 280.426 46.9184 280.683 47.1027C280.941 47.287 281.242 47.4006 281.558 47.4322V47.4322Z" fill="#F9FBFC"/>
<path d="M264.826 47.4322H268.089C268.669 47.4322 268.941 46.9613 268.705 46.3818L267.382 43.1219C267.25 42.8338 267.046 42.5853 266.788 42.401C266.53 42.2167 266.229 42.103 265.914 42.0714H262.651C262.071 42.0714 261.799 42.5423 262.034 43.1219L263.339 46.3818C263.473 46.6723 263.68 46.9225 263.941 47.107C264.202 47.2915 264.507 47.4037 264.826 47.4322Z" fill="#BFD9FF"/>
<path d="M304.544 62.8264H307.807C308.387 62.8264 308.659 62.3556 308.423 61.776L307.1 58.5161C306.968 58.2281 306.763 57.9795 306.506 57.7952C306.248 57.6109 305.947 57.4973 305.631 57.4657H302.368C301.788 57.4657 301.516 57.9365 301.752 58.5161L303.075 61.776C303.207 62.064 303.412 62.3126 303.669 62.4969C303.927 62.6812 304.228 62.7948 304.544 62.8264Z" fill="#F9FBFC"/>
<path d="M284.603 318.823H289.135C289.951 318.823 290.35 318.153 290.005 317.338L288.192 312.738C288.017 312.327 287.731 311.972 287.366 311.714C287.001 311.455 286.572 311.301 286.126 311.271H281.521C280.706 311.271 280.307 311.923 280.633 312.738L282.446 317.338C282.628 317.764 282.927 318.13 283.309 318.393C283.691 318.656 284.14 318.805 284.603 318.823V318.823Z" fill="#4385FF"/>
<path d="M237.326 318.823H241.931C242.747 318.823 243.127 318.153 242.801 317.338L240.988 312.738C240.806 312.328 240.516 311.975 240.149 311.717C239.782 311.458 239.351 311.304 238.904 311.271H234.299C233.483 311.271 233.103 311.923 233.429 312.738L235.242 317.338C235.418 317.754 235.706 318.112 236.074 318.375C236.442 318.637 236.876 318.792 237.326 318.823Z" fill="#4385FF"/>
<path d="M293.304 340.52H297.909C298.725 340.52 299.123 339.85 298.779 339.035L296.966 334.435C296.79 334.024 296.504 333.669 296.14 333.41C295.775 333.151 295.346 332.998 294.9 332.968H290.295C289.48 332.968 289.081 333.62 289.407 334.435L291.22 339.035C291.396 339.45 291.684 339.809 292.052 340.071C292.42 340.333 292.854 340.489 293.304 340.52Z" fill="#BFD9FF"/>
<path d="M269.702 340.52H274.307C275.123 340.52 275.503 339.85 275.177 339.035L273.364 334.435C273.183 334.023 272.894 333.669 272.526 333.411C272.159 333.152 271.728 332.999 271.279 332.968H266.693C265.877 332.968 265.479 333.62 265.805 334.435L267.618 339.035C267.794 339.45 268.082 339.809 268.45 340.071C268.818 340.333 269.251 340.489 269.702 340.52V340.52Z" fill="#FF8D02"/>
<path d="M246.1 340.52H250.705C251.52 340.52 251.901 339.85 251.575 339.035L249.762 334.435C249.58 334.025 249.29 333.672 248.922 333.413C248.555 333.155 248.125 333.001 247.677 332.968H243.073C242.257 332.968 241.876 333.62 242.203 334.435L244.015 339.035C244.192 339.45 244.48 339.809 244.848 340.071C245.216 340.333 245.649 340.489 246.1 340.52Z" fill="#BFD9FF"/>
<path d="M227.211 340.52H231.816C232.631 340.52 233.03 339.85 232.686 339.035L230.873 334.435C230.697 334.024 230.411 333.669 230.047 333.41C229.682 333.151 229.253 332.998 228.806 332.968H224.202C223.386 332.968 222.988 333.62 223.314 334.435L225.127 339.035C225.303 339.45 225.591 339.809 225.959 340.071C226.327 340.333 226.76 340.489 227.211 340.52V340.52Z" fill="#BFD9FF"/>
<path d="M302.078 362.217H306.683C307.498 362.217 307.897 361.546 307.553 360.731L305.74 356.131C305.564 355.72 305.278 355.366 304.913 355.107C304.549 354.848 304.12 354.695 303.673 354.664H299.105C298.29 354.664 297.891 355.316 298.217 356.131L300.03 360.731C300.203 361.142 300.486 361.497 300.847 361.759C301.208 362.021 301.634 362.179 302.078 362.217Z" fill="#BFD9FF"/>
<path d="M320.967 362.217H325.572C326.387 362.217 326.768 361.546 326.442 360.731L324.629 356.131C324.447 355.721 324.157 355.368 323.789 355.11C323.422 354.852 322.992 354.698 322.544 354.664H317.94C317.124 354.664 316.743 355.316 317.07 356.131L318.883 360.731C319.064 361.144 319.353 361.499 319.72 361.761C320.087 362.022 320.518 362.18 320.967 362.217V362.217Z" fill="#BFD9FF"/>
<path d="M278.476 362.217H283.08C283.896 362.217 284.295 361.546 283.951 360.731L282.138 356.131C281.957 355.72 281.667 355.366 281.3 355.108C280.933 354.849 280.501 354.696 280.053 354.664H275.467C274.651 354.664 274.252 355.316 274.579 356.131L276.391 360.731C276.568 361.147 276.856 361.506 277.224 361.768C277.592 362.03 278.025 362.185 278.476 362.217V362.217Z" fill="#BFD9FF"/>
<path d="M254.874 362.217H259.478C260.294 362.217 260.675 361.546 260.348 360.731L258.536 356.131C258.353 355.721 258.063 355.368 257.696 355.11C257.329 354.852 256.899 354.698 256.451 354.664H251.847C251.049 354.664 250.65 355.316 250.977 356.131L252.789 360.731C252.966 361.147 253.254 361.506 253.622 361.768C253.99 362.03 254.423 362.185 254.874 362.217Z" fill="#FF8D02"/>
<path d="M310.852 383.913H315.42C316.236 383.913 316.635 383.243 316.29 382.428L314.477 377.828C314.302 377.417 314.016 377.063 313.651 376.804C313.286 376.545 312.857 376.392 312.411 376.361H307.806C306.991 376.361 306.592 377.013 306.918 377.828L308.731 382.428C308.91 382.849 309.204 383.211 309.579 383.474C309.954 383.737 310.395 383.889 310.852 383.913V383.913Z" fill="#FF8D02"/>
<path opacity="0.39" d="M204.244 227.454H334.871L313.263 185.292H182.635L204.244 227.454Z" fill="#A1C2FF"/>
<path d="M215.208 217.496C207.164 210.398 205.134 199.563 210.674 193.295C216.215 187.028 227.228 187.701 235.272 194.799C243.316 201.897 245.346 212.732 239.805 218.999C234.265 225.267 223.252 224.594 215.208 217.496Z" fill="#73A5FF"/>
<path d="M229.658 214.921C229.914 214.928 230.168 214.876 230.401 214.77C230.634 214.663 230.839 214.504 231 214.305L235.423 208.401C235.704 207.902 235.783 207.315 235.645 206.76C235.507 206.204 235.161 205.723 234.68 205.413C234.285 205.019 233.751 204.798 233.193 204.798C232.636 204.798 232.101 205.019 231.707 205.413L228.408 209.832L216.57 200.36C216.376 200.16 216.144 200.001 215.887 199.893C215.63 199.784 215.354 199.728 215.075 199.728C214.796 199.728 214.52 199.784 214.263 199.893C214.006 200.001 213.774 200.16 213.579 200.36C213.304 200.857 213.228 201.44 213.366 201.991C213.504 202.542 213.846 203.021 214.323 203.33L228.027 214.305C228.491 214.679 229.063 214.895 229.658 214.921V214.921Z" fill="white"/>
<path d="M328.109 105.061C328.218 106.105 328.627 107.095 329.286 107.911C329.946 108.728 330.828 109.336 331.826 109.663C332.825 109.989 333.896 110.02 334.912 109.751C335.927 109.483 336.843 108.926 337.548 108.148C338.253 107.371 338.718 106.406 338.887 105.37C339.055 104.334 338.919 103.271 338.496 102.311C338.073 101.35 337.381 100.533 336.502 99.957C335.624 99.3812 334.598 99.0718 333.548 99.0662C332.031 99.1412 330.606 99.8148 329.586 100.939C328.567 102.063 328.035 103.546 328.109 105.061V105.061Z" stroke="#505E83" stroke-width="0.52" stroke-miterlimit="10"/>
<path d="M384.976 137.461C387.995 137.897 390.892 138.946 393.489 140.544C396.086 142.142 398.328 144.255 400.076 146.752C406.529 155.463 397.175 187.429 369.386 200.342C351.258 207.441 349.989 191.287 354.521 180.003C359.053 168.72 372.123 140.105 384.976 137.461Z" fill="white"/>
<path d="M261.472 479.593C261.472 483.686 301.099 487.018 349.971 487.018C398.843 487.018 438.488 483.686 438.488 479.593C438.488 475.5 398.861 472.167 349.971 472.167C301.081 472.167 261.472 475.482 261.472 479.593Z" fill="#DEE3EE"/>
<path d="M382.311 455.56C382.311 455.56 380.498 451.539 373.465 452.608C366.431 453.676 365.688 455.016 364.89 458.512C364.093 462.007 361.664 465.756 360.05 466.553C358.437 467.35 352.545 471.37 347.705 472.167C342.865 472.964 342.267 475.934 343.427 477.275C344.587 478.615 362.733 479.683 366.757 479.086C366.757 479.086 380.444 478.814 383.652 477.745C386.861 476.677 382.492 456.9 382.311 455.56Z" fill="#16142A"/>
<path d="M347.361 455.56C347.361 455.56 345.548 451.539 338.515 452.608C331.481 453.676 330.738 455.016 329.922 458.512C329.106 462.007 326.714 465.756 325.1 466.553C323.487 467.35 317.595 471.37 312.755 472.167C307.915 472.964 307.317 475.934 308.477 477.275C309.637 478.615 327.783 479.683 331.807 479.086C331.807 479.086 345.494 478.814 348.702 477.745C351.911 476.677 347.633 456.9 347.361 455.56Z" fill="#16142A"/>
<path d="M388.782 355.805C389.29 352.572 388.579 349.266 386.788 346.526C384.997 343.786 382.252 341.807 379.084 340.972C367.356 337.26 365.126 342.675 361.573 352.799C358.02 362.923 364.582 458.512 364.582 458.512C364.582 458.512 378.885 458.838 382.347 456.791C382.347 456.791 391.9 393.403 391.175 377.919C390.45 362.434 388.782 355.805 388.782 355.805Z" fill="#2B3554"/>
<path d="M333.838 109.136C333.838 109.136 331.1 112.758 331.1 114.786C331.1 116.815 334.817 116.742 334.817 116.742L333.838 109.136Z" fill="#FF7759"/>
<path d="M347.071 71.3385C347.071 71.3385 339.131 73.367 334.635 85.5374C330.14 97.7079 333.131 123.57 336.122 126.631C339.113 129.692 348.231 128.442 360.866 124.349C374.19 119.948 378.704 106.093 381.096 96.9654C385.665 79.4522 370.419 61.45 347.071 71.3385Z" fill="#FF8D68"/>
<path d="M375.531 138.475L369.096 115.42C369.096 115.42 356.207 111.671 348.177 120.256L345.494 124.005V139.019C355.461 140.594 365.628 140.41 375.531 138.475V138.475Z" fill="#FF8D68"/>
<path d="M393.496 262.643C396.374 282.637 396.374 302.94 393.496 322.934C388.674 355.099 378.994 358.323 370.165 358.323C361.337 358.323 358.926 332.587 357.295 321.395C355.663 310.202 349.246 271.554 361.319 262.716C373.392 253.878 387.06 252.99 393.496 262.643Z" fill="#2B3554"/>
<path d="M359.706 300.422C359.706 300.422 369.368 274.705 352.455 263.44C335.542 252.175 322.689 253.787 318.665 272.278C314.641 290.769 313.825 354.302 319.463 367.161C325.1 380.019 345.222 359.916 359.706 300.422Z" fill="#2B3F63"/>
<path d="M378.867 138.475C378.867 138.475 377.054 132.173 375.459 131.629C373.863 131.086 353.996 128.949 343.264 135.378C338.442 139.145 338.968 141.808 338.968 141.808C338.968 141.808 371.072 135.614 378.867 138.475Z" fill="white"/>
<path d="M319.952 262.643C319.952 262.643 318.339 266.501 319.299 267.805C320.587 269.091 357.095 282.004 395.544 272.64C396.197 272.64 394.583 266.193 394.583 266.193L319.952 262.643Z" fill="#6060E7"/>
<path d="M395.925 204.471C396.994 196.973 400.203 159.991 399.133 154.63C398.136 149.613 393.858 140.395 384.976 137.461C384.341 137.246 383.693 137.07 383.036 136.936C383.036 136.936 349.772 134.799 326.17 144.977C326.17 144.977 318.085 151.678 316.598 185.853C316.598 185.853 317.033 191.612 318.411 203.964C319.789 216.316 317.759 225.262 315.819 237.523C313.879 249.784 310 262.064 324.212 264.69C337.79 267.28 375.277 273.745 397.248 267.279C401.762 264.056 395.308 249.169 395.308 237.578C395.308 225.987 395.925 204.471 395.925 204.471Z" fill="#8182EE"/>
<path d="M344.424 357.508C344.577 354.24 343.509 351.032 341.43 348.506C339.35 345.98 336.405 344.315 333.167 343.834C321.094 341.425 319.481 347.058 317.07 357.508C314.659 367.958 328.961 459.127 328.961 459.127C328.961 459.127 344.769 460.033 347.977 457.624C347.977 457.624 351.603 394.49 349.264 379.223C346.926 363.955 344.424 357.508 344.424 357.508Z" fill="#2B3F63"/>
<path d="M362.914 294.391C362.914 294.391 351.657 330.613 343.21 348.271" stroke="#2A2E59" stroke-width="0.67" stroke-miterlimit="10"/>
<path d="M339.983 355.497C337.883 354.356 335.53 353.758 333.14 353.758C330.749 353.758 328.397 354.356 326.297 355.497" stroke="#2A2E59" stroke-width="0.67" stroke-miterlimit="10"/>
<path d="M341.198 359.916C341.198 359.916 335.56 356.711 325.898 363.538" stroke="#2A2E59" stroke-width="0.67" stroke-miterlimit="10"/>
<path d="M383.435 350.68C383.435 350.68 379.012 346.659 368.933 351.078" stroke="#2A2E59" stroke-width="0.67" stroke-miterlimit="10"/>
<path d="M380.226 354.701C378.2 353.798 375.964 353.472 373.764 353.756C371.564 354.04 369.484 354.925 367.754 356.312" stroke="#2A2E59" stroke-width="0.67" stroke-miterlimit="10"/>
<path d="M365.325 361.13L367.736 443.136" stroke="#2A2E59" stroke-width="0.67" stroke-miterlimit="10"/>
<path d="M332.079 292.417C332.079 292.417 323.016 297.851 319.191 289.212" stroke="#2A2E59" stroke-width="0.67" stroke-miterlimit="10"/>
<path d="M322.943 293.45C322.943 293.45 318.665 326.683 319.734 348.67" stroke="#2A2E59" stroke-width="0.67" stroke-miterlimit="10"/>
<path d="M350.642 121.324C350.642 121.324 347.832 128.569 338.37 127.355" stroke="#E66657" stroke-width="0.67" stroke-miterlimit="10"/>
<path d="M338.515 76.6631C338.515 76.6631 333.928 82.9657 333.638 86.6784C333.348 90.3911 339.367 94.122 340.237 96.4039C341.107 98.6859 339.113 101.584 339.983 103.014C340.598 104.39 340.978 105.86 341.107 107.361L340.817 110.603C340.759 111.169 340.912 111.737 341.246 112.198C341.581 112.659 342.073 112.981 342.63 113.102L343.319 113.247C343.795 113.341 344.29 113.266 344.716 113.034C345.143 112.803 345.476 112.43 345.657 111.979C346.69 109.389 348.811 104.554 350.497 104.137C352.781 103.576 355.065 107.578 355.935 109.57C356.425 110.711 357.639 113.754 358.6 116.199C359.013 117.25 359.716 118.161 360.627 118.828C361.539 119.495 362.621 119.89 363.748 119.966C365.922 120.228 368.119 120.228 370.292 119.966C372.304 119.405 382.583 100.443 382.855 91.2786C383.127 82.1145 376.836 72.9685 370.165 70.107C363.495 67.2455 350.823 64.6375 338.515 76.6631Z" fill="#7E3636"/>
<path d="M384.921 156.224C384.921 158.814 374.045 197.662 375.857 204.526C377.67 211.39 382.329 259.401 382.329 259.401" stroke="#6060E7" stroke-width="0.67" stroke-miterlimit="10"/>
<path d="M355.011 64.221C355.011 64.221 348.702 64.4745 346.527 61.3232C344.352 58.172 337.318 57.4475 332.224 62.5367C327.13 67.6258 327.384 77.0253 331.735 80.4483C331.735 80.4483 326.659 79.4884 325.916 83.1105C325.173 86.7327 331.499 92.3108 339.004 93.977C339.004 93.977 351.131 90.5903 354.757 92.7636C358.382 94.9369 382.873 92.5101 382.873 92.5101C382.873 92.5101 388.202 87.6745 386.752 83.3279C385.302 78.9813 383.834 83.5633 383.834 83.5633C383.834 83.5633 385.048 77.5143 377.054 68.7849C369.06 60.0555 357.911 64.9273 355.011 64.221Z" fill="#7E3636"/>
<path d="M236.021 193.967L218.818 194.691C218.818 194.691 219.308 196.376 221.972 196.865C224.637 197.354 234.571 198.567 234.571 198.567L236.021 193.967Z" fill="#EB7754"/>
<path d="M233.846 197.589C231.524 197.167 229.172 196.925 226.812 196.865C225.598 197.1 224.383 204.109 224.383 204.109L228.988 208.945C228.988 208.945 230.692 208.22 228.988 205.558L228.027 203.874L235.06 201.211L233.846 197.589Z" fill="#FF8D68"/>
<path d="M250.56 201.7L243.309 200.74C243.309 200.74 237.254 194.691 236.057 193.967C234.861 193.242 228.806 202.678 228.063 203.892C228.063 204.851 231.689 208.003 235.314 208.492C238.94 208.981 240.154 208.003 240.154 208.003L248.149 211.154L250.56 201.7Z" fill="#FF8D68"/>
<path d="M326.17 144.977C326.17 144.977 342.394 144.814 341.923 164.664C341.451 184.513 307.48 216.95 298.308 220.807C289.135 224.665 249.834 214.034 246.445 212.096C243.055 210.158 244.015 201.936 249.345 199.998L289.57 198.06C289.57 198.06 314.786 146.589 326.17 144.977Z" fill="white"/>
<path d="M288.936 201.302C287.498 202.911 286.428 204.814 285.802 206.879C285.176 208.943 285.008 211.119 285.31 213.255" stroke="#A6D0F4" stroke-width="0.53" stroke-miterlimit="10"/>
<path d="M286.416 200.342C284.032 201.188 281.942 202.702 280.396 204.703C278.85 206.703 277.913 209.106 277.697 211.625" stroke="#A6D0F4" stroke-width="0.53" stroke-miterlimit="10"/>
<path d="M328.182 105.061H344.986" stroke="#505E83" stroke-width="0.52" stroke-miterlimit="10"/>
<path d="M343.01 107.071C343.01 107.071 344.152 102.127 348.34 104.409C352.527 106.691 347.578 118.481 344.152 117.72C340.726 116.96 342.231 108.973 343.01 107.071Z" fill="#FF7759"/>
<path d="M378.033 83.7988C378.033 83.7988 366.395 81.1365 358.092 89.8478" stroke="#663136" stroke-width="0.53" stroke-miterlimit="10"/>
<path d="M376.492 82.0239C374.692 80.3763 372.492 79.2271 370.11 78.6902C367.729 78.1534 365.248 78.2474 362.914 78.9632" stroke="#663136" stroke-width="0.53" stroke-miterlimit="10"/>
<path d="M377.616 86.0626C376.355 86.2959 375.163 86.8092 374.128 87.5647C373.092 88.3202 372.24 89.2985 371.634 90.4273" stroke="#663136" stroke-width="0.53" stroke-miterlimit="10"/>
<path d="M342.394 62.9895C342.394 62.9895 330.774 66.6116 333.439 77.2608" stroke="#663136" stroke-width="0.53" stroke-miterlimit="10"/>
</g>
<defs>
<linearGradient id="paint0_linear_1_515" x1="344.515" y1="205.377" x2="4.82916e-05" y2="205.377" gradientUnits="userSpaceOnUse">
<stop stop-color="white" stop-opacity="0.2"/>
<stop offset="1" stop-color="white" stop-opacity="0.7"/>
</linearGradient>
<clipPath id="clip0_1_515">
<rect width="468" height="487" fill="white" transform="matrix(-1 0 0 1 468 0)"/>
</clipPath>
</defs>
</svg>
